<?xml version="1.0" standalone="no"?>
<!DOCTYPE svg PUBLIC "-//W3C//DTD SVG 1.1//EN" "http://www.w3.org/Graphics/SVG/1.1/DTD/svg11.dtd" >
<svg xmlns="http://www.w3.org/2000/svg">
<metadata>Generated by IcoMoon</metadata>
<defs>
<font id="autodeal" horiz-adv-x="1024">
<font-face units-per-em="1024" ascent="960" descent="-64" />
<missing-glyph horiz-adv-x="1024" />
<glyph unicode="&#x20;" horiz-adv-x="512" d="" />
<glyph unicode="&#xe900;" glyph-name="account" d="M512.036 460.827c47.872 0 94.664 14.195 134.467 40.791s70.825 64.396 89.144 108.623c18.319 44.226 23.117 92.892 13.778 139.842-9.344 46.95-32.394 90.077-66.243 123.927s-76.974 56.901-123.924 66.24c-46.95 9.339-95.618 4.546-139.845-13.773s-82.027-49.342-108.622-89.144c-26.595-39.803-40.791-86.598-40.791-134.469 0.064-64.172 25.585-125.698 70.962-171.075s106.902-70.897 171.074-70.962zM512.036 864.221c31.913 0 63.109-9.463 89.646-27.194s47.217-42.931 59.428-72.415c12.216-29.485 15.411-61.928 9.185-93.228s-21.596-60.052-44.16-82.618c-22.569-22.566-51.318-37.934-82.621-44.16-31.299-6.226-63.742-3.031-93.226 9.182s-54.685 32.894-72.415 59.43c-17.73 26.535-27.193 57.732-27.193 89.645 0 42.795 17 83.837 47.26 114.097s71.303 47.261 114.097 47.261zM512.056 380.099c-96.257-0.108-188.539-38.39-256.602-106.455-68.063-68.060-106.348-160.343-106.454-256.599 0-10.696 4.25-20.956 11.815-28.524s17.826-11.817 28.524-11.817c10.699 0 20.959 4.25 28.525 11.817s11.815 17.828 11.815 28.524c0 74.89 29.75 146.714 82.706 199.67s124.779 82.708 199.672 82.708c74.89 0 146.714-29.752 199.67-82.708s82.703-124.78 82.703-199.67c0-10.696 4.25-20.956 11.817-28.524 7.562-7.567 17.823-11.817 28.524-11.817 10.696 0 20.956 4.25 28.524 11.817s11.817 17.828 11.817 28.524c-0.108 96.256-38.395 188.539-106.455 256.599-68.065 68.065-160.348 106.348-256.599 106.455z" />
<glyph unicode="&#xe902;" glyph-name="add-list" horiz-adv-x="1344" d="M378.687 220.8h-293.333c-7.073 0-13.855 2.81-18.856 7.808-5.001 5.005-7.81 11.789-7.81 18.861s2.81 13.856 7.81 18.854c5.001 4.998 11.784 7.808 18.856 7.808h228.96l-83.253 83.256c-15.030 14.938-35.343 23.35-56.534 23.413h-89.173c-7.073 0-13.855 2.81-18.856 7.811s-7.81 11.784-7.81 18.856c0 7.072 2.81 13.855 7.81 18.856s11.784 7.811 18.856 7.811h89.173c35.627 0 69.067-13.866 94.294-39.040l128.746-128.745c3.766-3.718 6.337-8.48 7.384-13.664 1.048-5.19 0.525-10.573-1.501-15.462s-5.466-9.062-9.876-11.987c-4.411-2.925-9.594-4.467-14.886-4.435zM325.354-45.869h-160c-44.107 0-80 35.898-80 80v106.669c0 7.072 2.81 13.856 7.811 18.854 5.001 5.005 11.784 7.814 18.856 7.814s13.855-2.81 18.856-7.814c5.001-4.998 7.811-11.782 7.811-18.854v-106.669c0-7.072 2.81-13.85 7.811-18.854 5.001-4.998 11.784-7.808 18.856-7.808h160c7.073 0 13.855 2.81 18.856 7.808 5.001 5.005 7.811 11.782 7.811 18.854v80c0 7.078 2.809 13.856 7.81 18.861 5.001 4.998 11.784 7.808 18.856 7.808s13.855-2.81 18.856-7.808c5.001-5.005 7.811-11.782 7.811-18.861v-80c0-44.102-35.893-80-80-80zM912 60.8h-480c-4.147 0.006-8.237 0.973-11.947 2.829l-101.013 50.502h-233.707c-5.876-0.006-11.588 1.933-16.248 5.51s-8.004 8.602-9.511 14.278c-17.764 72.077-27.018 145.984-27.573 220.214 0 120.16 37.28 193.226 121.013 236.96 73.494 38.453 238.454 56.373 518.987 56.373 280.531 0 445.491-17.92 518.989-56.373 83.731-43.734 121.011-116.8 121.011-236.96 0-115.523-26.451-216.003-27.571-220.214-1.51-5.677-4.851-10.701-9.51-14.278-4.666-3.578-10.374-5.517-16.25-5.51h-233.709l-101.069-50.502c-3.686-1.862-7.763-2.829-11.891-2.829zM438.293 114.131h467.416l101.062 50.509c3.706 1.869 7.802 2.835 11.949 2.829h218.88c7.36 33.971 21.069 107.36 21.069 186.665 0 100.426-26.778 155.413-92.32 189.707-63.898 33.386-230.189 50.293-494.349 50.293s-430.453-16.907-494.347-50.293c-65.546-34.294-92.32-89.281-92.32-189.707 0-79.305 13.707-152.694 21.12-186.665h218.88c4.107 0 8.214-0.96 11.947-2.829l101.013-50.509zM1258.65 220.8h-293.331c-5.28-0.006-10.445 1.549-14.842 4.48s-7.821 7.098-9.843 11.974c-2.022 4.877-2.547 10.246-1.517 15.43 1.037 5.178 3.584 9.933 7.322 13.664l128.742 128.745c12.365 12.413 27.059 22.255 43.245 28.956s33.536 10.129 51.053 10.084h89.171c7.072 0 13.856-2.81 18.854-7.811 5.005-5.001 7.814-11.784 7.814-18.856s-2.81-13.855-7.814-18.856c-4.998-5.001-11.782-7.811-18.854-7.811h-89.171c-21.069 0-41.651-8.533-56.589-23.413l-83.2-83.256h228.96c7.072 0 13.856-2.81 18.854-7.808 5.005-4.998 7.814-11.782 7.814-18.854s-2.81-13.856-7.814-18.861c-4.998-4.998-11.782-7.808-18.854-7.808zM831.987 220.8h-320.003c-3.908 0-7.769 0.864-11.308 2.522s-6.67 4.077-9.172 7.078l-133.333 160.001c-3.266 3.886-5.352 8.626-6.012 13.659s0.133 10.15 2.286 14.748c2.153 4.597 5.576 8.483 9.864 11.199s9.265 4.148 14.342 4.128h586.668c5.069-0.002 10.029-1.448 14.304-4.168s7.686-6.601 9.837-11.19c2.144-4.589 2.944-9.695 2.298-14.721-0.653-5.025-2.714-9.762-5.958-13.655l-133.338-160.001c-2.496-3.002-5.632-5.421-9.171-7.078s-7.398-2.522-11.302-2.522zM524.464 274.131h294.986l88.909 106.669h-472.801l88.907-106.669zM1178.65 540.8c-5.203-0.003-10.291 1.515-14.637 4.367-4.352 2.852-7.77 6.915-9.843 11.686-60.211 138.666-133.862 292.64-152.909 310.4-20.422 17.333-107.302 46.88-302.611 46.88h-53.331c-195.308 0-282.188-29.547-302.721-46.987-18.933-17.653-92.586-171.68-152.8-310.293-2.822-6.493-8.107-11.598-14.694-14.194s-13.933-2.468-20.426 0.354c-6.492 2.822-11.598 8.108-14.193 14.694s-2.468 13.933 0.353 20.426c30.294 69.76 131.894 299.68 167.2 329.707 44 37.333 170.027 59.626 337.281 59.626h53.331c167.251 0 293.28-22.293 337.28-59.68 35.309-30.027 136.858-259.947 167.2-329.706 1.734-4.061 2.432-8.486 2.042-12.884s-1.862-8.629-4.288-12.319c-2.419-3.69-5.722-6.724-9.6-8.831s-8.218-3.222-12.634-3.247zM1178.65-45.869h-160c-44.102 0-80 35.898-80 80v80c0 7.072 2.81 13.856 7.814 18.861 4.998 4.998 11.782 7.808 18.854 7.808s13.856-2.81 18.854-7.808c5.005-5.005 7.814-11.789 7.814-18.861v-80c0-7.072 2.803-13.856 7.808-18.854 4.998-4.998 11.782-7.808 18.854-7.808h160c7.072 0 13.856 2.81 18.854 7.808 5.005 4.998 7.814 11.782 7.814 18.854v106.669c0 7.072 2.81 13.856 7.808 18.854 5.005 5.005 11.782 7.814 18.861 7.814 7.072 0 13.85-2.81 18.854-7.814 4.998-4.998 7.808-11.782 7.808-18.854v-106.669c0-44.102-35.891-80-80-80z" />
<glyph unicode="&#xe903;" glyph-name="automatic" d="M981.333 802.136c-0.017 31.917-8.986 63.189-25.882 90.267s-41.045 48.873-69.709 62.914c-28.663 14.040-60.687 19.762-92.438 16.515s-61.955-15.332-87.183-34.884c-25.227-19.551-44.467-45.785-55.533-75.722s-13.517-62.377-7.072-93.636c6.444-31.259 21.525-60.086 43.53-83.204s50.051-39.603 80.954-47.583v-90.667c0-11.316-4.495-22.168-12.496-30.17s-18.854-12.497-30.17-12.497h-469.333c-14.538 0.004-28.97-2.485-42.667-7.36v140.693c40.22 10.385 75.273 35.082 98.586 69.461s33.288 76.082 28.053 117.291c-5.233 41.208-25.318 79.093-56.486 106.552s-71.281 42.61-112.821 42.61c-41.539 0-81.652-15.15-112.82-42.61s-51.252-65.344-56.486-106.552c-5.234-41.208 4.74-82.911 28.054-117.291s58.366-59.076 98.585-69.461v-352c-40.219-10.385-75.272-35.081-98.585-69.461s-33.288-76.082-28.054-117.293c5.234-41.207 25.318-79.087 56.486-106.547s71.282-42.615 112.82-42.615c41.539 0 81.653 15.155 112.821 42.615s51.252 65.34 56.486 106.547c5.234 41.211-4.74 82.913-28.053 117.293s-58.366 59.076-98.586 69.461v90.667c0 11.316 4.495 22.169 12.497 30.17s18.854 12.497 30.17 12.497h469.333c33.948 0 66.505 13.486 90.511 37.49s37.489 56.562 37.489 90.51v90.667c36.625 9.512 69.052 30.903 92.22 60.821 23.159 29.919 35.746 66.675 35.78 104.512zM85.333 802.136c0 16.877 5.005 33.376 14.382 47.409s22.704 24.97 38.296 31.429c15.593 6.459 32.75 8.149 49.304 4.856s31.758-11.42 43.692-23.354c11.934-11.934 20.061-27.139 23.354-43.692s1.603-33.711-4.856-49.303c-6.458-15.593-17.396-28.92-31.429-38.297s-30.531-14.381-47.409-14.381c-22.631 0-44.337 8.991-60.339 24.993s-24.994 37.708-24.994 60.34zM256 119.469c0-16.881-5.004-33.376-14.381-47.405-9.376-14.037-22.704-24.977-38.296-31.428-15.593-6.46-32.75-8.149-49.304-4.864-16.553 3.294-31.758 11.426-43.692 23.356-11.934 11.938-20.062 27.145-23.354 43.691-3.293 16.555-1.603 33.714 4.856 49.306s17.396 28.92 31.428 38.297c14.033 9.376 30.531 14.381 47.409 14.381 22.632 0 44.337-8.991 60.34-24.993s24.993-37.708 24.993-60.34zM810.667 716.803c-16.877 0-33.376 5.005-47.409 14.381s-24.97 22.704-31.428 38.297c-6.459 15.592-8.149 32.75-4.856 49.303s11.42 31.759 23.354 43.692c11.934 11.934 27.139 20.061 43.692 23.354s33.711 1.603 49.304-4.856c15.591-6.459 28.92-17.396 38.298-31.429s14.379-30.531 14.379-47.409c0-22.632-8.994-44.337-24.994-60.34s-37.707-24.993-60.339-24.993z" />
<glyph unicode="&#xe904;" glyph-name="btn-right" horiz-adv-x="2176" d="M1591.462 917.333c15.002 14.982 35.341 23.396 56.538 23.396s41.536-8.415 56.538-23.396l400-400c14.976-15 23.398-35.333 23.398-56.534 0-21.199-8.422-41.533-23.398-56.534l-400-400c-7.334-7.859-16.166-14.163-25.971-18.536-9.818-4.372-20.403-6.724-31.155-6.913-10.739-0.189-21.402 1.786-31.373 5.81-9.958 4.023-19.008 10.012-26.598 17.609-7.603 7.597-13.594 16.645-17.613 26.607s-6.003 20.631-5.811 31.373c0.192 10.74 2.547 21.335 6.912 31.148 4.378 9.814 10.675 18.646 18.534 25.97l263.475 263.466h-1726.938c-21.217 0-41.566 8.429-56.569 23.432s-23.431 35.351-23.431 56.568c0 21.217 8.429 41.565 23.431 56.568s35.351 23.432 56.569 23.432h1726.938l-263.475 263.466c-14.976 15-23.386 35.334-23.386 56.534s8.41 41.533 23.386 56.533z" />
<glyph unicode="&#xe906;" glyph-name="chat" d="M860.085 825.945c-94.542 94.65-220.268 146.799-354.216 146.855-276.006 0-500.637-224.624-500.747-500.705-0.038-88.257 23.016-174.408 66.839-250.345l-71.039-259.476 265.454 69.637c73.143-39.904 155.49-60.928 239.289-60.955h0.211c275.975 0 500.63 224.644 500.732 500.738 0.059 133.803-51.976 259.606-146.524 354.251zM505.868 55.528h-0.174c-74.678 0.032-147.92 20.097-211.831 58.012l-15.19 9.022-157.525-41.321 42.044 153.584-9.9 15.743c-41.662 66.269-63.663 142.859-63.625 221.498 0.087 229.471 186.797 416.163 416.368 416.163 111.167-0.036 215.669-43.383 294.242-122.053 78.579-78.669 121.829-183.238 121.791-294.45-0.097-229.491-186.794-416.198-416.2-416.198zM734.159 367.239c-12.504 6.268-74.024 36.524-85.499 40.707-11.458 4.177-19.806 6.257-28.138-6.268-8.348-12.52-32.321-40.707-39.623-49.050-7.303-8.354-14.595-9.399-27.109-3.137s-52.826 19.478-100.619 62.103c-37.192 33.179-62.3 74.152-69.603 86.671-7.29 12.534-0.063 18.652 5.489 25.536 13.544 16.819 27.107 34.453 31.277 42.797 4.175 8.353 2.084 15.66-1.049 21.921-3.122 6.26-28.143 67.846-38.567 92.905-10.164 24.387-20.471 21.094-28.156 21.475-7.29 0.365-15.635 0.439-23.979 0.439-8.34 0-21.897-3.126-33.368-15.66-11.466-12.527-43.784-42.792-43.784-104.378s44.833-121.078 51.087-129.429c6.253-8.353 88.23-134.728 213.737-188.919 29.85-12.902 53.154-20.593 71.333-26.36 29.971-9.523 57.242-8.181 78.805-4.958 24.037 3.595 74.019 30.267 84.453 59.494 10.423 29.227 10.423 54.277 7.292 59.5-3.121 5.217-11.469 8.343-23.978 14.611z" />
<glyph unicode="&#xe907;" glyph-name="check" d="M32 460.8c0 265.108 214.892 480 480 480 265.11 0 480-214.892 480-480 0-265.11-214.89-480-480-480-265.108 0-480 214.89-480 480zM689.723 550.105c2.954 3.935 5.092 8.424 6.286 13.198 1.197 4.773 1.426 9.736 0.673 14.6s-2.465 9.528-5.045 13.719c-2.58 4.191-5.971 7.824-9.976 10.685-4.001 2.861-8.539 4.894-13.34 5.977-4.797 1.084-9.767 1.197-14.612 0.333s-9.468-2.688-13.6-5.363c-4.128-2.676-7.68-6.151-10.449-10.22l-159.311-223.015-79.951 79.951c-6.999 6.522-16.257 10.075-25.823 9.905s-18.692-4.045-25.457-10.811c-6.765-6.762-10.64-15.892-10.809-25.454-0.169-9.567 3.382-18.826 9.904-25.824l110.769-110.769c3.789-3.789 8.361-6.703 13.391-8.55 5.029-1.843 10.401-2.568 15.742-2.131 5.341 0.441 10.52 2.040 15.183 4.683 4.659 2.643 8.688 6.27 11.808 10.626l184.615 258.462z" />
<glyph unicode="&#xe908;" glyph-name="check1" d="M49.778 460.8c0 255.289 206.933 462.222 462.222 462.222s462.222-206.933 462.222-462.222c0-255.289-206.933-462.222-462.222-462.222s-462.222 206.933-462.222 462.222zM683.139 546.797c2.844 3.79 4.904 8.111 6.053 12.707 1.155 4.597 1.371 9.378 0.649 14.061s-2.372 9.175-4.858 13.211c-2.48 4.036-5.751 7.534-9.603 10.289-3.857 2.756-8.226 4.713-12.846 5.757-4.625 1.043-9.409 1.153-14.074 0.32s-9.114-2.588-13.090-5.165c-3.977-2.577-7.401-5.923-10.064-9.841l-153.412-214.757-76.989 76.992c-6.74 6.281-15.655 9.7-24.867 9.537s-18-3.894-24.514-10.408c-6.514-6.514-10.246-15.303-10.408-24.514s3.256-18.127 9.537-24.868l106.667-106.667c3.65-3.647 8.050-6.457 12.894-8.232s10.018-2.475 15.16-2.048c5.142 0.421 10.131 1.957 14.619 4.506 4.488 2.543 8.368 6.036 11.372 10.234l177.776 248.887z" />
<glyph unicode="&#xe90b;" glyph-name="city" horiz-adv-x="1280" d="M1200 60.8h-40v600c0 10.609-4.211 20.783-11.718 28.284-7.501 7.501-17.67 11.716-28.282 11.716h-320c-10.611 0-20.781-4.214-28.282-11.716-7.507-7.501-11.718-17.676-11.718-28.284v-200h-240v440c0 10.609-4.214 20.783-11.716 28.284s-17.676 11.716-28.284 11.716h-320c-10.609 0-20.783-4.214-28.284-11.716s-11.716-17.676-11.716-28.284v-840h-40c-10.609 0-20.783-4.211-28.284-11.718-7.501-7.501-11.716-17.67-11.716-28.282s4.214-20.781 11.716-28.282c7.501-7.507 17.676-11.718 28.284-11.718h1120c10.611 0 20.781 4.211 28.282 11.718 7.507 7.501 11.718 17.67 11.718 28.282s-4.211 20.781-11.718 28.282c-7.501 7.507-17.67 11.718-28.282 11.718zM840 620.8h240v-560h-240v560zM760 380.8v-320h-240v320h240zM200 860.8h240v-800h-240v800zM360 740.8v-80c0-10.609-4.214-20.783-11.716-28.284s-17.676-11.716-28.284-11.716c-10.609 0-20.783 4.214-28.284 11.716s-11.716 17.676-11.716 28.284v80c0 10.609 4.214 20.783 11.716 28.284s17.676 11.716 28.284 11.716c10.609 0 20.783-4.214 28.284-11.716s11.716-17.676 11.716-28.284zM360 500.8v-80c0-10.609-4.214-20.783-11.716-28.284s-17.676-11.716-28.284-11.716c-10.609 0-20.783 4.214-28.284 11.716s-11.716 17.676-11.716 28.284v80c0 10.609 4.214 20.783 11.716 28.284s17.676 11.716 28.284 11.716c10.609 0 20.783-4.214 28.284-11.716s11.716-17.676 11.716-28.284zM360 260.8v-80c0-10.611-4.214-20.781-11.716-28.282-7.501-7.507-17.676-11.718-28.284-11.718s-20.783 4.211-28.284 11.718c-7.501 7.501-11.716 17.67-11.716 28.282v80c0 10.611 4.214 20.781 11.716 28.282 7.501 7.507 17.676 11.718 28.284 11.718s20.783-4.211 28.284-11.718c7.501-7.501 11.716-17.67 11.716-28.282zM600 180.8v80c0 10.611 4.214 20.781 11.716 28.282 7.501 7.507 17.676 11.718 28.284 11.718 10.611 0 20.781-4.211 28.282-11.718 7.507-7.501 11.718-17.67 11.718-28.282v-80c0-10.611-4.211-20.781-11.718-28.282-7.501-7.507-17.67-11.718-28.282-11.718-10.609 0-20.783 4.211-28.284 11.718-7.501 7.501-11.716 17.67-11.716 28.282zM920 180.8v80c0 10.611 4.211 20.781 11.718 28.282 7.501 7.507 17.67 11.718 28.282 11.718s20.781-4.211 28.282-11.718c7.507-7.501 11.718-17.67 11.718-28.282v-80c0-10.611-4.211-20.781-11.718-28.282-7.501-7.507-17.67-11.718-28.282-11.718s-20.781 4.211-28.282 11.718c-7.507 7.501-11.718 17.67-11.718 28.282zM920 420.8v80c0 10.609 4.211 20.783 11.718 28.284 7.501 7.501 17.67 11.716 28.282 11.716s20.781-4.214 28.282-11.716c7.507-7.501 11.718-17.676 11.718-28.284v-80c0-10.609-4.211-20.783-11.718-28.284-7.501-7.501-17.67-11.716-28.282-11.716s-20.781 4.214-28.282 11.716c-7.507 7.501-11.718 17.676-11.718 28.284z" />
<glyph unicode="&#xe90d;" glyph-name="close2" d="M512 923.022c255.289 0 462.222-206.933 462.222-462.222s-206.933-462.222-462.222-462.222c-255.289 0-462.222 206.933-462.222 462.222s206.933 462.222 462.222 462.222zM430.459 592.593c-3.255 3.493-7.181 6.295-11.542 8.238s-9.070 2.988-13.844 3.073c-4.774 0.084-9.516-0.794-13.943-2.582s-8.449-4.45-11.825-7.826c-3.376-3.376-6.038-7.398-7.826-11.825s-2.666-9.169-2.582-13.943c0.084-4.774 1.129-9.483 3.073-13.844s4.745-8.287 8.238-11.542l81.541-81.541-81.541-81.539c-3.493-3.26-6.295-7.185-8.238-11.543-1.943-4.363-2.988-9.068-3.073-13.847-0.084-4.773 0.794-9.512 2.582-13.943 1.788-4.426 4.45-8.448 7.826-11.822 3.376-3.379 7.398-6.042 11.825-7.828s9.169-2.668 13.943-2.583c4.774 0.085 9.483 1.132 13.844 3.072 4.362 1.946 8.287 4.745 11.542 8.238l81.541 81.543 81.539-81.543c3.26-3.493 7.185-6.292 11.543-8.238 4.363-1.94 9.068-2.987 13.847-3.072 4.773-0.085 9.512 0.796 13.943 2.583 4.426 1.786 8.448 4.449 11.822 7.828 3.379 3.374 6.042 7.396 7.828 11.822 1.786 4.432 2.668 9.17 2.583 13.943-0.085 4.779-1.132 9.483-3.072 13.847-1.946 4.358-4.745 8.283-8.238 11.543l-81.543 81.539 81.543 81.541c3.493 3.255 6.292 7.181 8.238 11.542 1.94 4.361 2.987 9.070 3.072 13.844s-0.796 9.516-2.583 13.943c-1.786 4.428-4.449 8.449-7.828 11.825-3.374 3.376-7.396 6.038-11.822 7.826-4.432 1.789-9.17 2.666-13.943 2.582-4.779-0.084-9.483-1.129-13.847-3.073-4.358-1.943-8.283-4.745-11.543-8.238l-81.539-81.541-81.541 81.541z" />
<glyph unicode="&#xe90e;" glyph-name="color" horiz-adv-x="1078" d="M987.497 387.239c5.438 1.816 10.332 4.991 14.201 9.227s6.597 9.388 7.912 14.972c1.32 5.583 1.196 11.415-0.372 16.934-1.563 5.522-4.511 10.551-8.564 14.612l-486.274 486.274c-6.316 6.312-14.881 9.858-23.811 9.858s-17.494-3.546-23.811-9.858l-170.989-171.2-103.579 103.832c-6.32 6.315-14.891 9.86-23.825 9.856s-17.502-3.557-23.817-9.877c-6.315-6.321-9.861-14.891-9.856-23.826s3.557-17.502 9.877-23.817l103.579-103.579-185.010-184.884c-18.949-18.951-29.595-44.653-29.595-71.453 0-26.801 10.646-52.504 29.595-71.453l357.432-357.43c18.951-18.949 44.653-29.599 71.453-29.599s52.5 10.65 71.455 29.599l330.483 330.483 93.518 31.329zM851.957 409.298l-336.126-336.125c-6.316-6.311-14.881-9.857-23.811-9.857s-17.494 3.546-23.81 9.857l-357.305 357.306c-6.312 6.316-9.858 14.881-9.858 23.811s3.546 17.494 9.858 23.81l184.884 184.926 122.611-122.611c-13.456-24.917-17.494-53.845-11.376-81.494s21.985-52.172 44.698-69.084c22.713-16.912 50.754-25.088 78.997-23.024 28.245 2.064 54.799 14.223 74.815 34.255s32.154 46.599 34.191 74.844c2.037 28.245-6.16 56.28-23.094 78.977s-41.472 38.543-69.125 44.637c-27.656 6.094-56.58 2.030-81.485-11.448l-122.568 122.568 147.369 147.158 423.665-423.958-49.351-16.422c-4.958-1.66-9.464-4.441-13.177-8.127zM486.358 520.079c9.504 11.336 23.118 18.438 37.854 19.745s29.384-3.288 40.735-12.775c11.356-9.487 18.475-23.091 19.801-37.824 1.331-14.734-3.244-29.392-12.714-40.756s-23.062-18.506-37.794-19.854c-14.732-1.353-29.397 3.201-40.775 12.652-11.378 9.454-18.54 23.037-19.911 37.766s3.158 29.401 12.595 40.793c0 0 0.211 0.211 0.211 0.253zM1004.884 284.289c-3.072 4.619-7.243 8.408-12.137 11.032-4.888 2.619-10.353 3.988-15.904 3.988s-11.016-1.369-15.904-3.988c-4.894-2.625-9.065-6.413-12.137-11.032-7.454-11.41-73.011-111.875-73.011-187.284 0-26.802 10.644-52.504 29.599-71.454 18.949-18.955 44.652-29.599 71.454-29.599s52.504 10.644 71.454 29.599c18.955 18.949 29.599 44.652 29.599 71.454 0 75.41-65.558 175.875-73.011 187.117v0.167zM976.842 63.321c-8.936 0-17.5 3.546-23.816 9.868-6.322 6.316-9.868 14.88-9.868 23.816 0 28.629 16.842 68.716 33.684 101.387 16.842-32.671 33.684-73.006 33.684-101.387 0-8.936-3.552-17.5-9.868-23.816-6.316-6.322-14.88-9.868-23.816-9.868z" />
<glyph unicode="&#xe910;" glyph-name="condition" horiz-adv-x="1365" d="M1280 554.667h-57.603l-148.159 333.333c-6.704 15.081-17.64 27.895-31.478 36.887s-29.99 13.779-46.49 13.779h-627.203c-16.505 0-32.655-4.787-46.494-13.779s-24.774-21.806-31.479-36.887l-148.16-333.333h-57.6c-11.316 0-22.168-4.495-30.17-12.497s-12.497-18.854-12.497-30.17c0-11.316 4.495-22.168 12.497-30.17s18.854-12.497 30.17-12.497h42.667v-426.667c0-22.63 8.991-44.339 24.994-60.341s37.708-24.992 60.34-24.992h128c22.632 0 44.336 8.991 60.34 24.992s24.994 37.711 24.994 60.341v85.333h512v-85.333c0-22.63 8.991-44.339 24.992-60.341s37.711-24.992 60.341-24.992h128c22.63 0 44.339 8.991 60.341 24.992s24.992 37.711 24.992 60.341v426.667h42.667c11.319 0 22.166 4.495 30.167 12.497 8.008 8.002 12.5 18.854 12.5 30.17s-4.492 22.168-12.5 30.17c-8.001 8.002-18.848 12.497-30.167 12.497zM369.067 853.333h627.203l132.745-298.667h-892.695l132.747 298.667zM341.333 42.667h-128v85.333h128v-85.333zM1024 42.667v85.333h128v-85.333h-128zM1152 213.333h-938.667v256h938.667v-256zM298.667 341.333c0 11.316 4.495 22.168 12.497 30.17s18.854 12.497 30.17 12.497h85.333c11.316 0 22.168-4.495 30.17-12.497s12.497-18.854 12.497-30.17c0-11.316-4.495-22.168-12.497-30.17s-18.854-12.497-30.17-12.497h-85.333c-11.316 0-22.168 4.495-30.17 12.497s-12.497 18.854-12.497 30.17zM896 341.333c0 11.316 4.492 22.168 12.5 30.17 8.001 8.002 18.848 12.497 30.167 12.497h85.333c11.319 0 22.166-4.495 30.167-12.497 8.008-8.002 12.5-18.854 12.5-30.17s-4.492-22.168-12.5-30.17c-8.001-8.002-18.848-12.497-30.167-12.497h-85.333c-11.319 0-22.166 4.495-30.167 12.497-8.008 8.002-12.5 18.854-12.5 30.17z" />
<glyph unicode="&#xe911;" glyph-name="coupe" horiz-adv-x="2219" d="M1696.853 216.286c-4.309 4.31-9.429 7.729-15.053 10.061-5.632 2.333-11.674 3.533-17.766 3.533s-12.126-1.2-17.758-3.533c-5.632-2.332-10.752-5.751-15.061-10.061s-7.723-9.426-10.061-15.057c-2.33-5.63-3.533-11.666-3.533-17.76s1.203-12.13 3.533-17.76c2.338-5.631 5.751-10.748 10.061-15.057 8.704-8.704 20.514-13.594 32.819-13.594 12.314 0 24.115 4.89 32.819 13.594s13.594 20.508 13.594 32.817c0 12.309-4.89 24.114-13.594 32.817zM572.267 225.993c-9.872 4.073-20.85 4.602-31.069 1.496s-19.045-9.653-24.981-18.531c-5.937-8.877-8.616-19.536-7.583-30.166s5.716-20.573 13.251-28.14c54.543-51.767 118.329 48.995 50.383 75.342zM1155.593 507.024h-92.45c-12.254 0-24.013-4.87-32.683-13.538-8.661-8.669-13.534-20.425-13.534-32.684s4.873-24.015 13.534-32.684c8.67-8.668 20.429-13.538 32.683-13.538h92.45c12.254 0 24.013 4.87 32.683 13.538s13.534 20.425 13.534 32.684c0 12.259-4.864 24.015-13.534 32.684s-20.429 13.538-32.683 13.538zM2025.489 624.428l-387.345 64.712c-159.002 136.355-228.796 211.235-378.556 255.609-11.767 3.432-24.422 2.049-35.166-3.845-10.752-5.894-18.714-15.817-22.153-27.586-3.43-11.769-2.048-24.419 3.849-35.168s15.821-18.715 27.588-22.148c117.862-35.128 175.181-92.444 259.302-164.088h-476.092v92.444c0 12.259-4.864 24.016-13.534 32.684s-20.429 13.538-32.683 13.538c-12.262 0-24.021-4.87-32.683-13.538-8.67-8.668-13.542-20.425-13.542-32.684v-92.444h-323.554v46.222c0 12.259-4.87 24.016-13.538 32.684s-20.425 13.538-32.684 13.538c-12.259 0-24.015-4.87-32.684-13.538s-13.538-20.425-13.538-32.684v-46.222h-416c-9.797-0.267-19.256-3.641-27.010-9.635s-13.403-14.298-16.129-23.712c-2.726-9.414-2.39-19.451 0.961-28.661s9.543-17.117 17.681-22.578c-75.342-151.609-67.947-124.338-67.947-285.192 0-49.035 19.479-96.062 54.153-130.736s81.7-54.153 130.736-54.153h143.288c10.609-52.245 38.953-99.213 80.23-132.954s92.948-52.164 146.259-52.164c53.311 0 104.982 18.423 146.259 52.164s69.622 80.708 80.23 132.954h656.354c10.607-52.245 38.955-99.213 80.23-132.954s92.945-52.164 146.261-52.164c53.308 0 104.977 18.423 146.261 52.164 41.276 33.741 69.615 80.708 80.23 132.954h143.283c49.041 0 96.068 19.479 130.739 54.153s54.153 81.701 54.153 130.736v74.418c-0.026 54.705-19.456 107.628-54.835 149.354s-84.412 69.55-138.377 78.521zM554.699 44.8c-27.425 0-54.235 8.132-77.039 23.373-22.804 15.232-40.577 36.89-51.072 62.229-10.496 25.338-13.242 53.22-7.892 80.119s18.557 51.606 37.95 70.999c19.393 19.393 44.101 32.6 71 37.95s54.78 2.604 80.118-7.891c25.338-10.495 46.995-28.269 62.232-51.073s23.369-49.613 23.369-77.039c0-36.776-14.609-72.048-40.614-98.049-26.005-26.010-61.275-40.619-98.052-40.619zM1664.034 44.8c-27.426 0-54.238 8.132-77.039 23.373-22.801 15.232-40.576 36.89-51.072 62.229-10.496 25.338-13.244 53.22-7.893 80.119s18.56 51.606 37.948 70.999c19.396 19.393 44.1 32.6 71.006 37.95 26.897 5.35 54.775 2.604 80.111-7.891 25.344-10.495 47.002-28.269 62.234-51.073 15.241-22.803 23.373-49.613 23.373-77.039 0-36.776-14.609-72.048-40.619-98.049-26.001-26.010-61.269-40.619-98.048-40.619zM2033.809 229.69h-143.283c-10.615 52.244-38.955 99.215-80.23 132.953-41.284 33.737-92.954 52.168-146.261 52.168-53.316 0-104.986-18.43-146.261-52.168s-69.623-80.708-80.23-132.953h-656.354c-10.609 52.244-38.953 99.215-80.23 132.953s-92.948 52.168-146.259 52.168c-53.31 0-104.982-18.43-146.259-52.168s-69.622-80.708-80.23-132.953h-143.288c-24.518 0-48.032 9.74-65.368 27.076s-27.077 40.851-27.077 65.368c0 86.898-4.622 117.405 14.329 155.769 51.307 102.613 53.156 121.564 89.209 121.564 1669.542 0 1309.018 18.027 1814.225-66.097 29.568-4.629 56.841-18.7 77.756-40.111 20.907-21.41 34.33-49.011 38.255-78.68h-46.217c-12.262 0-24.021-4.87-32.683-13.538-8.67-8.668-13.542-20.425-13.542-32.684s4.873-24.015 13.542-32.684c8.661-8.668 20.42-13.538 32.683-13.538h46.217c0-24.517-9.737-48.031-27.076-65.368-17.331-17.336-40.849-27.076-65.365-27.076z" />
<glyph unicode="&#xe912;" glyph-name="cylinders" d="M800 716.8v96c0 16.974-6.743 33.252-18.744 45.255s-28.283 18.745-45.256 18.745h-448c-16.974 0-33.252-6.743-45.255-18.745s-18.745-28.281-18.745-45.255v-96c0-16.974 6.743-33.252 18.745-45.255s28.281-18.745 45.255-18.745h26.56l-90.16-570.998c-1.324-8.381 0.734-16.947 5.722-23.808 4.988-6.866 12.498-11.469 20.878-12.795 1.653-0.266 3.325-0.399 5-0.399 7.612 0.010 14.971 2.734 20.755 7.685 5.785 4.946 9.615 11.796 10.805 19.313l31.16 197.002h386.56l31.119-197.002c1.193-7.521 5.028-14.377 10.819-19.328 5.796-4.946 13.164-7.67 20.782-7.67 1.69-0.005 3.374 0.133 5.038 0.399 8.381 1.326 15.892 5.929 20.879 12.795 4.987 6.861 7.045 15.427 5.724 23.808l-90.204 570.998h26.563c16.973 0 33.254 6.743 45.256 18.745s18.744 28.281 18.744 45.255zM288 812.8h448v-96h-448v96zM695.158 332.8h-366.318l50.52 320h265.279l50.519-320z" />
<glyph unicode="&#xe917;" glyph-name="diesel" horiz-adv-x="1280" d="M1200 771.947l-103.142 103.040c-8.013 8.006-18.867 12.504-30.191 12.504s-22.178-4.498-30.191-12.504c-8.004-8.006-12.501-18.865-12.501-30.187s4.497-22.181 12.501-30.187l103.049-103.147c7.953-7.969 12.442-18.763 12.476-30.026v-433.974c0-11.316-4.497-22.169-12.493-30.17-8.004-8.002-18.859-12.497-30.174-12.497s-22.17 4.495-30.174 12.497c-7.996 8.001-12.493 18.854-12.493 30.17v213.333c0 33.947-13.483 66.505-37.487 90.51s-56.567 37.49-90.513 37.49h-85.333v256c0 33.947-13.486 66.505-37.49 90.51s-56.562 37.49-90.51 37.49h-426.667c-33.947 0-66.505-13.486-90.51-37.49s-37.49-56.562-37.49-90.51v-810.667h-85.333c-11.316 0-22.168-4.497-30.17-12.493-8.002-8.004-12.497-18.859-12.497-30.174s4.495-22.17 12.497-30.174c8.002-7.996 18.854-12.493 30.17-12.493h853.333c11.315 0 22.17 4.497 30.174 12.493 7.996 8.004 12.493 18.859 12.493 30.174s-4.497 22.17-12.493 30.174c-8.004 7.996-18.859 12.493-30.174 12.493h-85.333v469.333h85.333c11.315 0 22.17-4.495 30.174-12.497 7.996-8.001 12.493-18.854 12.493-30.17v-213.333c0-33.947 13.483-66.505 37.487-90.51s56.567-37.49 90.513-37.49c33.946 0 66.509 13.486 90.513 37.49s37.487 56.562 37.487 90.51v433.974c0.068 16.804-3.2 33.454-9.609 48.989s-15.829 29.645-27.725 41.517zM256 34.133v810.667c0 11.316 4.495 22.169 12.497 30.17s18.854 12.497 30.17 12.497h426.667c11.316 0 22.169-4.495 30.17-12.497s12.497-18.854 12.497-30.17v-810.667h-512zM682.667 546.133c0-11.316-4.495-22.169-12.497-30.17s-18.854-12.497-30.17-12.497h-256c-11.316 0-22.169 4.495-30.17 12.497s-12.497 18.854-12.497 30.17c0 11.316 4.495 22.169 12.497 30.17s18.854 12.497 30.17 12.497h256c11.316 0 22.169-4.495 30.17-12.497s12.497-18.854 12.497-30.17z" />
<glyph unicode="&#xe918;" glyph-name="doors" d="M974.222 69.689h-106.667v782.222c0 18.86-7.492 36.947-20.827 50.283s-31.425 20.828-50.284 20.828h-568.889c-18.86 0-36.947-7.492-50.283-20.828s-20.828-31.423-20.828-50.283v-782.222h-106.667c-9.43 0-18.474-3.743-25.142-10.416-6.668-6.667-10.414-15.707-10.414-25.139s3.746-18.472 10.414-25.139c6.668-6.673 15.712-10.416 25.142-10.416h924.444c9.432 0 18.472 3.743 25.139 10.416 6.673 6.667 10.416 15.707 10.416 25.139s-3.743 18.472-10.416 25.139c-6.667 6.673-15.707 10.416-25.139 10.416zM227.556 851.911h568.889v-782.222h-568.889v782.222zM689.778 443.022c0-10.548-3.129-20.86-8.988-29.631s-14.188-15.607-23.933-19.641c-9.745-4.039-20.469-5.097-30.817-3.038s-19.849 7.14-27.307 14.597c-7.458 7.459-12.538 16.962-14.598 27.307s-1.001 21.069 3.038 30.815c4.033 9.745 10.871 18.075 19.644 23.935 8.767 5.861 19.081 8.988 29.628 8.988 14.143 0 27.711-5.619 37.712-15.621s15.622-23.567 15.622-37.712z" />
<glyph unicode="&#xe919;" glyph-name="drive" d="M512 354.133c-10.548 0-20.859 3.129-29.63 8.988s-15.607 14.188-19.643 23.933c-4.037 9.745-5.093 20.471-3.035 30.817s7.137 19.849 14.596 27.307c7.459 7.459 16.962 12.538 27.308 14.597s21.069 1.001 30.814-3.035c9.745-4.037 18.075-10.873 23.935-19.643s8.988-19.082 8.988-29.631c0-14.143-5.619-27.711-15.621-37.712s-23.568-15.622-37.713-15.622zM974.222 460.8c0-91.42-27.108-180.787-77.898-256.796-50.79-76.015-122.977-135.259-207.44-170.24-84.457-34.987-177.397-44.14-267.059-26.305s-172.023 61.861-236.666 126.504c-64.643 64.643-108.665 147.001-126.5 236.663s-8.681 182.599 26.303 267.059c34.984 84.46 94.229 156.649 170.241 207.439s165.378 77.899 256.796 77.899c122.55-0.129 240.043-48.869 326.696-135.525 86.659-86.655 135.396-204.148 135.526-326.698zM120.889 460.8v-1.467c109.206 92.761 247.826 143.689 391.111 143.689s281.907-50.928 391.111-143.689v1.467c0 103.729-41.205 203.21-114.551 276.557s-172.828 114.554-276.56 114.554c-103.729 0-203.209-41.206-276.557-114.554s-114.554-172.828-114.554-276.557zM420.889 80.447l-75.778 202.576h-181.422c25.772-50.284 62.092-94.413 106.48-129.371 44.388-34.964 95.799-59.932 150.72-73.205zM512 69.689c3.689 0 7.378 0 11.067 0l89.2 238.091c5.12 13.545 14.239 25.219 26.146 33.468 11.907 8.243 26.038 12.681 40.522 12.709h209.419c1.69 5.82 3.203 11.73 4.449 17.778-49.658 50.661-108.919 90.908-174.325 118.384-65.399 27.476-135.629 41.628-206.567 41.628s-141.165-14.152-206.568-41.628c-65.402-27.476-124.666-67.723-174.321-118.384 1.378-5.956 2.889-11.867 4.444-17.778h209.645c14.488-0.040 28.621-4.483 40.527-12.737s21.022-19.934 26.139-33.485l88.889-238.046c3.822 0 7.556 0 11.333 0zM860.314 283.022h-181.424l-75.958-202.621c54.96 13.249 106.411 38.218 150.83 73.188 44.425 34.97 80.765 79.121 106.553 129.434z" />
<glyph unicode="&#xe91b;" glyph-name="engine" d="M914.286 677.942h-36.572c-9.7 0-19-3.853-25.859-10.711s-10.714-16.159-10.714-25.859v-109.714h-109.714v73.142c0 19.4-7.706 38.003-21.422 51.72s-32.323 21.422-51.72 21.422h-146.286v73.144h146.286c9.7 0 19 3.853 25.859 10.711s10.714 16.161 10.714 25.86v36.571c0 9.699-3.855 19.001-10.714 25.86s-16.159 10.712-25.859 10.712h-402.286c-9.699 0-19.001-3.853-25.86-10.712s-10.712-16.161-10.712-25.86v-36.571c0-9.699 3.853-19.002 10.712-25.86s16.161-10.711 25.86-10.711h146.286v-73.144h-146.286c-19.399 0-38.003-7.706-51.72-21.422s-21.423-32.32-21.423-51.72v-146.286h-73.143v109.714c0 9.7-3.853 19.003-10.711 25.861s-16.161 10.711-25.86 10.711h-36.571c-9.699 0-19.001-3.853-25.86-10.711s-10.712-16.161-10.712-25.861v-329.142c0-9.7 3.853-19.003 10.712-25.861s16.161-10.711 25.86-10.711h36.571c9.699 0 19.002 3.853 25.86 10.711s10.711 16.161 10.711 25.861v109.714h73.143v-94.794c0.001-10.424 2.23-20.728 6.538-30.221s10.595-17.953 18.44-24.819l100.645-88.064c13.312-11.666 30.428-18.102 48.128-18.102h301.678c19.397 0 38.003 7.706 51.72 21.422 13.716 13.719 21.422 32.323 21.422 51.72v109.716h109.714v-109.716c0-9.697 3.855-19 10.714-25.859s16.159-10.711 25.859-10.711h36.572c29.097 0 57.004 11.558 77.578 32.133 20.577 20.577 32.136 48.481 32.136 77.581v329.142c0 29.1-11.558 57.006-32.136 77.581-20.575 20.575-48.481 32.133-77.578 32.133zM578.998 365.074l-73.142-109.714c-11.228-16.822-30.428-16.274-30.428-16.274v109.714h-73.142c-6.615 0.003-13.107 1.802-18.78 5.202-5.676 3.4-10.319 8.276-13.443 14.108s-4.605 12.401-4.288 19.008c0.315 6.607 2.419 13.007 6.083 18.514l73.144 109.714c11.19 16.86 30.426 16.312 30.426 16.312v-109.716h73.144c6.62 0.003 13.117-1.795 18.798-5.197 5.678-3.402 10.33-8.282 13.453-14.121 3.123-5.837 4.603-12.413 4.283-19.026-0.323-6.615-2.432-13.015-6.108-18.524z" />
<glyph unicode="&#xe91d;" glyph-name="facebook" horiz-adv-x="542" d="M458.118 426.271l24.091 174.419h-150.624v113.186c0 47.717 21.041 94.23 88.501 94.23h68.476v148.499c0 0-62.14 11.784-121.552 11.784-124.044 0-205.124-83.539-205.124-234.767v-132.932h-137.884v-174.419h137.884v-421.645h169.7v421.645h126.534z" />
<glyph unicode="&#xe91e;" glyph-name="favorite" horiz-adv-x="1252" d="M892.444 972.8c-110.131 0-206.558-47.36-266.667-127.413-60.107 80.053-156.533 127.413-266.667 127.413-87.668-0.099-171.717-34.969-233.708-96.959s-96.86-146.039-96.959-233.708c0-373.333 553.546-675.521 577.121-687.997 6.212-3.345 13.158-5.097 20.213-5.097s14 1.752 20.213 5.097c23.575 12.476 577.121 314.664 577.121 687.997-0.097 87.668-34.97 171.717-96.961 233.708-61.986 61.991-146.039 96.86-233.705 96.959zM625.778 40.533c-97.386 56.747-512 315.255-512 601.6 0.085 65.040 25.96 127.393 71.95 173.383s108.343 71.865 173.383 71.95c103.733 0 190.826-55.253 227.197-144 3.22-7.826 8.687-14.519 15.713-19.229s15.297-7.225 23.757-7.225c8.459 0 16.731 2.514 23.757 7.225s12.493 11.403 15.707 19.229c36.375 88.907 123.472 144 227.203 144 65.041-0.085 127.391-25.96 173.386-71.95 45.989-45.99 71.862-108.343 71.947-173.383 0-285.918-414.72-544.802-512-601.6z" />
<glyph unicode="&#xe920;" glyph-name="filter" horiz-adv-x="1138" d="M227.557 583.467v346.667c0 11.316-4.495 22.168-12.497 30.17s-18.854 12.497-30.17 12.497c-11.316 0-22.168-4.495-30.17-12.497s-12.497-18.854-12.497-30.17v-346.667c-36.711-9.4-69.25-30.75-92.486-60.685s-35.849-66.753-35.849-104.648c0-37.894 12.612-74.712 35.849-104.647s55.775-51.285 92.486-60.683v-261.336c0-11.315 4.495-22.17 12.497-30.168 8.002-8.004 18.854-12.498 30.17-12.498s22.168 4.494 30.17 12.498c8.002 7.999 12.497 18.853 12.497 30.168v261.336c36.711 9.398 69.25 30.748 92.486 60.683s35.849 66.753 35.849 104.647c0 37.895-12.613 74.713-35.849 104.648s-55.775 51.285-92.486 60.685zM184.89 332.8c-16.877 0-33.376 5.006-47.408 14.382s-24.97 22.704-31.429 38.298c-6.459 15.593-8.148 32.749-4.855 49.302s11.419 31.758 23.353 43.692c11.934 11.934 27.139 20.061 43.692 23.354s33.711 1.603 49.303-4.856c15.593-6.459 28.92-17.396 38.296-31.429s14.381-30.531 14.381-47.408c0-22.63-8.99-44.339-24.994-60.342s-37.708-24.991-60.34-24.991zM611.556 839.467v90.667c0 11.316-4.494 22.168-12.493 30.17-8.004 8.002-18.859 12.497-30.174 12.497s-22.167-4.495-30.169-12.497c-8.001-8.002-12.497-18.854-12.497-30.17v-90.667c-36.711-9.4-69.25-30.75-92.486-60.685s-35.849-66.753-35.849-104.648c0-37.895 12.612-74.713 35.849-104.648s55.775-51.285 92.486-60.685v-517.333c0-11.315 4.495-22.17 12.497-30.168 8.001-8.004 18.854-12.498 30.169-12.498s22.17 4.494 30.174 12.498c7.999 7.999 12.493 18.853 12.493 30.168v517.333c36.71 9.4 69.251 30.75 92.49 60.685 23.233 29.936 35.846 66.753 35.846 104.648s-12.612 74.713-35.846 104.648c-23.239 29.935-55.78 51.285-92.49 60.685zM568.889 588.8c-16.876 0-33.374 5.005-47.407 14.382s-24.971 22.704-31.429 38.296c-6.459 15.593-8.148 32.75-4.856 49.304s11.42 31.758 23.354 43.692c11.934 11.934 27.139 20.061 43.692 23.354s33.713 1.603 49.3-4.856c15.593-6.459 28.922-17.396 38.298-31.429s14.382-30.531 14.382-47.408c0-22.632-8.988-44.337-24.991-60.34s-37.712-24.994-60.342-24.994zM1123.556 247.467c-0.034 37.837-12.618 74.593-35.783 104.511-23.159 29.918-55.592 51.308-92.217 60.823v517.333c0 11.316-4.494 22.168-12.493 30.17-8.004 8.002-18.859 12.497-30.174 12.497s-22.17-4.495-30.168-12.497c-8.004-8.002-12.498-18.854-12.498-30.17v-517.333c-36.71-9.401-69.251-30.751-92.484-60.686-23.239-29.935-35.851-66.753-35.851-104.647s12.612-74.712 35.851-104.647c23.233-29.935 55.774-51.285 92.484-60.683v-90.67c0-11.315 4.494-22.17 12.498-30.168 7.999-8.004 18.853-12.498 30.168-12.498s22.17 4.494 30.174 12.498c7.999 7.999 12.493 18.853 12.493 30.168v90.67c36.625 9.512 69.057 30.902 92.217 60.82 23.165 29.918 35.749 66.674 35.783 104.511zM952.889 162.133c-16.873 0-33.377 5.006-47.406 14.382-14.034 9.375-24.974 22.704-31.431 38.298s-8.146 32.751-4.858 49.3c3.294 16.555 11.423 31.761 23.359 43.696 11.93 11.93 27.136 20.059 43.691 23.353s33.712 1.604 49.3-4.858c15.593-6.457 28.922-17.397 38.298-31.425 9.381-14.034 14.382-30.532 14.382-47.411 0-22.63-8.988-44.339-24.991-60.342s-37.712-24.991-60.342-24.991z" />
<glyph unicode="&#xe921;" glyph-name="financing" d="M174.399 779.199l12.802-1.599c-6.4-7.999-9.602-19.2-8.001-30.401l9.6-155.199c1.601-14.399 9.6-27.199 20.801-33.599v-25.6c0-22.402 17.599-40.001 39.999-40.001h67.2c22.4 0 39.999 17.599 39.999 40.001v19.2h268.8v-19.2c0-22.402 17.601-40.001 40.001-40.001h67.2c22.4 0 39.999 17.599 39.999 40.001v28.798c9.602 8.001 16.002 17.601 16.002 30.401l9.598 155.199c1.601 11.201-3.198 20.801-7.999 30.401l14.399 1.599c25.6 3.202 46.401 25.601 44.8 54.401-3.2 24-23.999 41.6-48 43.2h-39.999c-12.8 0-25.6-4.8-35.2-14.4-11.201 25.6-25.6 49.6-38.4 70.4-14.399 24-41.6 40-68.801 40h-257.599c-28.8 0-54.4-14.4-70.4-40s-27.199-46.4-38.4-70.4c-7.999 9.6-20.799 14.4-33.599 14.4l-40.001-1.6c-27.2 0-48-22.4-48-48 0-24 19.2-46.4 43.199-48.001zM251.201 793.6h476.798c4.801-6.4 9.602-11.199 14.401-16-60.8-11.201-99.2-41.6-121.6-70.4-11.201-14.399-27.201-20.799-43.201-20.799h-177.599c-16 0-32 7.999-43.201 20.799-22.4 27.199-60.798 59.199-121.6 70.4 6.4 4.801 11.201 11.201 16.002 16zM747.199 582.4h-515.198c-6.4 0-12.8 4.799-12.8 11.199l-4.801 80.002c4.801 0 68.801-38.4 115.2 17.599 17.601-20.801 38.4-36.799 70.4-36.799h179.2c30.401 0 51.2 14.399 70.4 36.799 22.4-27.201 60.8-38.4 94.401-25.6l19.2 8.001-4.801-80.002c1.599-6.4-4.801-11.199-11.201-11.199zM307.2 713.6c-32-43.201-83.2-7.999-94.399-6.4l-1.601 41.6c43.199-1.601 73.6-17.601 96-35.2zM768 748.8l-1.601-41.6c-11.199-1.599-62.399-36.801-94.399 6.4 22.4 17.599 52.801 33.599 96 35.2zM326.4 531.2c0-4.799-4.801-9.6-9.6-9.6h-67.2c-4.799 0-9.6 4.801-9.6 9.6v19.2h84.799v-19.2h1.601zM734.399 523.199h-67.198c-4.801 0-9.602 4.801-9.602 9.602v19.2h84.801v-19.2c0-6.4-3.2-9.602-8.001-9.602zM761.6 844.8h39.999c9.6 0 17.601-6.4 17.601-14.4 0-1.6 1.601-17.6-16-19.2l-41.6-4.8c-19.2 19.2-14.401 22.4-14.401 24-3.198 8 4.801 14.4 14.401 14.4zM318.399 916.8c8.001 14.4 25.602 24 43.201 24h257.599c17.601 0 33.601-9.6 43.201-24 35.2-59.2 33.599-60.8 48-92.8h-439.999c14.399 33.6 11.199 33.6 47.998 92.8zM179.2 844.8h40.001c19.2 1.6 14.399-19.2 15.998-20.8-4.799-8-9.598-14.4-15.998-19.2l-41.6 4.8c-9.601 1.6-17.601 8-17.601 17.6 3.2 1.6 3.2 16 19.2 17.6zM1001.6 521.602c-30.401 43.199-92.8 41.6-121.6 3.2l-214.4-227.2c-14.401 30.399-44.8 51.2-78.401 51.2h-190.399c-17.599 0-33.601 3.2-49.599 11.199-80 38.4-176.002 27.201-244.801-30.399l-88-73.6c-6.4-4.801-8-16-1.6-22.4 4.8-6.4 16-8.001 22.4-1.601l88 73.6c59.2 49.601 142.4 59.201 211.201 25.6 19.2-9.6 41.598-14.399 64-14.399h190.399c28.8 0 55.999-22.4 55.999-56.001 0-30.399-22.398-54.4-52.799-54.4h-206.399c-8.001 0-16.002-6.4-16.002-16s6.4-16 16.002-16h203.199c44.8 0 83.2 35.2 83.2 84.801l232.001 244.799c17.599 24.001 54.398 24.001 71.999-1.599 11.201-16 11.201-38.4-1.599-54.4l-182.402-240c-123.199-163.2-334.399-211.2-515.2-155.201-49.599 16-127.999 4.801-174.399-22.4l-86.4-52.799c-8-4.801-9.6-14.401-4.8-20.801 3.2-7.999 12.8-9.6 20.8-4.799l89.6 52.799c38.4 24.001 107.199 32 148.801 19.2 192-59.199 416-7.999 548.799 166.4l182.4 240c19.2 27.201 19.2 64 0 91.201z" />
<glyph unicode="&#xe922;" glyph-name="fuel" horiz-adv-x="1216" d="M1140.998 752.5l-96.698 96.6c-7.507 7.505-17.683 11.722-28.301 11.722s-20.794-4.217-28.301-11.722c-7.507-7.506-11.718-17.686-11.718-28.3s4.211-20.794 11.718-28.3l96.602-96.7c7.462-7.471 11.667-17.59 11.699-28.15v-406.85c0-10.611-4.211-20.781-11.718-28.282-7.501-7.507-17.67-11.718-28.282-11.718s-20.781 4.211-28.282 11.718c-7.507 7.501-11.718 17.67-11.718 28.282v200c0 31.826-12.64 62.348-35.149 84.853-22.502 22.504-53.024 35.147-84.851 35.147h-80v240c0 31.826-12.64 62.348-35.149 84.853-22.502 22.504-53.024 35.147-84.851 35.147h-400c-31.826 0-62.348-12.643-84.853-35.147s-35.147-53.027-35.147-84.853v-760h-80c-10.609 0-20.783-4.211-28.284-11.718-7.502-7.501-11.716-17.67-11.716-28.282s4.214-20.781 11.716-28.282c7.501-7.507 17.676-11.718 28.284-11.718h800c10.611 0 20.781 4.211 28.282 11.718 7.507 7.501 11.718 17.67 11.718 28.282s-4.211 20.781-11.718 28.282c-7.501 7.507-17.67 11.718-28.282 11.718h-80v440h80c10.611 0 20.781-4.214 28.282-11.716 7.507-7.501 11.718-17.676 11.718-28.284v-200c0-31.827 12.64-62.349 35.149-84.851 22.502-22.509 53.024-35.149 84.851-35.149s62.349 12.64 84.851 35.149c22.509 22.502 35.149 53.024 35.149 84.851v406.85c0.058 15.754-3.002 31.364-9.011 45.927-6.003 14.564-14.842 27.793-25.99 38.923zM256 60.8v760c0 10.609 4.214 20.783 11.716 28.284s17.676 11.716 28.284 11.716h400c10.611 0 20.781-4.214 28.282-11.716 7.507-7.501 11.718-17.676 11.718-28.284v-760h-480zM656 540.8c0-10.609-4.211-20.783-11.718-28.284-7.499-7.501-17.673-11.716-28.282-11.716h-240c-10.609 0-20.783 4.214-28.284 11.716s-11.716 17.676-11.716 28.284c0 10.609 4.214 20.783 11.716 28.284s17.676 11.716 28.284 11.716h240c10.609 0 20.783-4.214 28.282-11.716 7.507-7.501 11.718-17.676 11.718-28.284z" />
<glyph unicode="&#xe924;" glyph-name="hatchback" horiz-adv-x="1902" d="M1901.714 391.071c-9.253 38.469-26.346 74.615-50.205 106.178s-53.972 57.864-88.459 77.258c-59.034 32.884-68.542 29.319-356.571 81.616-193.346 193.341-248.81 280.106-396.193 280.106h-891.429c-10.508 0-20.585-4.174-28.015-11.604s-11.604-17.507-11.604-28.015c0-10.508 4.174-20.585 11.604-28.014s17.507-11.604 28.015-11.604h11.094c-115.688-198.096-129.951-285.654-129.951-515.048 0-52.539 20.871-102.927 58.021-140.076s87.536-58.017 140.074-58.017h83.2c9.093-44.785 33.388-85.043 68.769-113.964 35.38-28.913 79.67-44.712 125.365-44.712s89.985 15.799 125.365 44.712c35.381 28.921 59.676 69.179 68.769 113.964h562.588c9.099-44.785 33.39-85.043 68.769-113.964 35.379-28.913 79.675-44.712 125.367-44.712s89.988 15.799 125.367 44.712c35.379 28.921 59.67 69.179 68.769 113.964h162.436c31.525 0 61.755 12.522 84.041 34.809 22.294 22.294 34.816 52.524 34.816 84.046 2.757 42.744 2.757 85.621 0 128.366zM1732.147 500.419c30.705-19.345 55.515-46.755 71.709-79.239h-60.621c-10.503-1.471-21.168 1.292-29.637 7.682s-14.058 15.883-15.528 26.391c-1.47 10.508 1.295 21.169 7.687 29.639 6.385 8.471 15.879 14.055 26.39 15.527zM1291.184 658.895h-350.23l-56.261 198.096c236.924 0 193.741 14.659 406.491-198.096zM417.189 856.991h84.785l-53.486-188.191c-91.916 124.8-91.916 97.066-31.299 188.191zM584.381 856.991h217.901l56.261-198.096h-330.421l56.259 198.096zM89.539 545.585h26.544c11.244 0 22.026-4.467 29.976-12.417s12.417-18.733 12.417-29.976c0-11.243-4.467-22.026-12.417-29.975s-18.733-12.417-29.976-12.417h-36.846c1.644 28.45 5.085 56.768 10.301 84.785zM475.429 64.607c-23.507 0-46.487 6.971-66.033 20.034s-34.78 31.62-43.776 53.343c-8.997 21.716-11.35 45.612-6.764 68.674 4.586 23.055 15.906 44.231 32.529 60.853s37.801 27.943 60.857 32.529c23.056 4.586 46.954 2.232 68.672-6.764s40.281-24.231 53.342-43.777c13.060-19.546 20.031-42.527 20.031-66.036 0-31.517-12.523-61.755-34.812-84.041-22.29-22.294-52.522-34.816-84.045-34.816zM1426.286 64.607c-23.508 0-46.49 6.971-66.033 20.034s-34.779 31.62-43.776 53.343c-8.997 21.716-11.352 45.612-6.766 68.674 4.586 23.055 15.909 44.231 32.534 60.853 16.618 16.622 37.8 27.943 60.855 32.529s46.95 2.232 68.674-6.764c21.716-8.996 40.28-24.231 53.336-43.777 13.063-19.546 20.034-42.527 20.034-66.036 0-31.517-12.522-61.755-34.816-84.041-22.287-22.294-52.517-34.816-84.041-34.816zM1782.857 223.086h-162.436c-9.099 44.781-33.39 85.041-68.769 113.959s-79.675 44.715-125.367 44.715c-45.692 0-89.988-15.797-125.367-44.715s-59.67-69.179-68.769-113.959h-562.588c-9.093 44.781-33.388 85.041-68.769 113.959s-79.67 44.715-125.365 44.715c-45.695 0-89.985-15.797-125.365-44.715s-59.676-69.179-68.769-113.959h-83.2c-31.522 0-61.755 12.522-84.045 34.812s-34.812 52.522-34.812 84.045v39.619h36.846c158.476 0 166.004 243.261-7.527 243.261 21.304 67.82 51.406 132.554 89.539 192.549 26.149 45.958 73.296 39.619 124.008 39.619-17.135-20.657-26.775-46.505-27.351-73.337s7.948-53.070 24.182-74.442c108.952-145.402 81.615-129.554 156.495-129.554 1072.486 0 822.491 15.451 1172.721-48.335-13.012-17.66-20.89-38.579-22.755-60.439-1.858-21.86 2.37-43.81 12.208-63.416 9.845-19.607 24.927-36.106 43.571-47.672s40.126-17.744 62.062-17.852h79.243v-79.238c0-10.508-4.176-20.585-11.608-28.019-7.431-7.424-17.503-11.6-28.014-11.6zM1398.133 211.595c-3.694-3.694-6.627-8.075-8.624-12.902s-3.028-9.999-3.028-15.221c0-5.23 1.031-10.401 3.028-15.228s4.93-9.209 8.624-12.902c3.694-3.694 8.082-6.627 12.902-8.624 4.827-2.004 10.006-3.028 15.228-3.028s10.394 1.024 15.221 3.028c4.827 1.997 9.216 4.93 12.91 8.624 7.461 7.461 11.652 17.576 11.652 28.131 0 10.547-4.191 20.663-11.652 28.123s-17.584 11.652-28.131 11.652c-10.555 0-20.67-4.191-28.131-11.652zM447.275 211.595c-5.508-5.552-9.25-12.61-10.752-20.29-1.502-7.673-0.699-15.623 2.31-22.843s8.086-13.392 14.594-17.73c6.508-4.337 14.155-6.656 21.977-6.656s15.47 2.319 21.978 6.656c6.508 4.337 11.587 10.511 14.594 17.73s3.812 15.17 2.31 22.843c-1.502 7.68-5.244 14.738-10.752 20.29-3.683 3.716-8.065 6.663-12.893 8.675s-10.007 3.050-15.237 3.050c-5.23 0-10.408-1.039-15.236-3.050s-9.209-4.959-12.893-8.675zM1069.692 500.421h-79.243c-10.503 0-20.582-4.174-28.014-11.604s-11.6-17.507-11.6-28.015c0-10.508 4.169-20.585 11.6-28.015s17.51-11.604 28.014-11.604h79.243c10.503 0 20.582 4.174 28.014 11.604s11.6 17.507 11.6 28.015c0 10.508-4.169 20.585-11.6 28.015s-17.51 11.604-28.014 11.604zM633.881 500.421h-79.238c-10.508 0-20.585-4.174-28.015-11.604s-11.604-17.507-11.604-28.015c0-10.508 4.174-20.585 11.604-28.015s17.507-11.604 28.015-11.604h79.238c10.508 0 20.585 4.174 28.015 11.604s11.604 17.507 11.604 28.015c0 10.508-4.174 20.585-11.604 28.015s-17.507 11.604-28.015 11.604z" />
<glyph unicode="&#xe925;" glyph-name="hightway" horiz-adv-x="1536" d="M1487.471-12.535c-6.127-3.447-12.868-5.658-19.849-6.494s-14.054-0.282-20.821 1.621c-6.767 1.911-13.090 5.137-18.603 9.498s-10.112 9.771-13.534 15.915l-464.529 826.129h-128.8v-53.333c0-14.145-5.619-27.71-15.621-37.712s-23.567-15.621-37.712-15.621c-14.145 0-27.71 5.619-37.712 15.621s-15.621 23.567-15.621 37.712v53.333h-128.8l-464.533-826.129c-6.931-12.382-18.494-21.495-32.147-25.353-13.653-3.849-28.276-2.116-40.653 4.813s-21.493 18.5-25.344 32.154c-3.851 13.645-2.12 28.271 4.811 40.644l435.467 773.871h-388.8c-14.145 0-27.71 5.619-37.712 15.621s-15.621 23.567-15.621 37.712c0 14.145 5.619 27.71 15.621 37.712s23.568 15.621 37.712 15.621h1386.665c14.148 0 27.716-5.619 37.717-15.621s15.616-23.568 15.616-37.712c0-14.145-5.615-27.71-15.616-37.712s-23.569-15.621-37.717-15.621h-388.796l435.465-773.871c3.447-6.118 5.658-12.868 6.494-19.84 0.836-6.98 0.282-14.063-1.621-20.821-1.911-6.767-5.137-13.090-9.498-18.603-4.361-5.521-9.762-10.112-15.906-13.534zM768.002 567.467c-14.145 0-27.71-5.619-37.712-15.621s-15.621-23.567-15.621-37.712v-106.667c0-14.145 5.619-27.71 15.621-37.712s23.567-15.621 37.712-15.621c14.145 0 27.71 5.619 37.712 15.621s15.621 23.567 15.621 37.712v106.667c0 14.145-5.619 27.71-15.621 37.712s-23.567 15.621-37.712 15.621zM768.002 194.133c-14.145 0-27.71-5.619-37.712-15.621s-15.621-23.567-15.621-37.712v-106.667c0-14.148 5.619-27.708 15.621-37.709 10.002-10.010 23.567-15.625 37.712-15.625s27.71 5.615 37.712 15.625c10.002 10.001 15.621 23.561 15.621 37.709v106.667c0 14.145-5.619 27.71-15.621 37.712s-23.567 15.621-37.712 15.621z" />
<glyph unicode="&#xe926;" glyph-name="hybrid" horiz-adv-x="2219" d="M1696.811 216.281c-4.309 4.31-9.429 7.729-15.061 10.061s-11.665 3.533-17.758 3.533c-6.093 0-12.134-1.201-17.758-3.533-5.632-2.332-10.752-5.751-15.061-10.061s-7.731-9.426-10.061-15.057c-2.33-5.63-3.533-11.666-3.533-17.76s1.203-12.13 3.533-17.761c2.33-5.63 5.751-10.747 10.061-15.056 8.704-8.704 20.506-13.594 32.819-13.594 12.305 0 24.115 4.89 32.819 13.594s13.594 20.508 13.594 32.817c0 12.309-4.89 24.113-13.594 32.817zM521.84 216.281c-6.519-6.465-10.964-14.725-12.77-23.727s-0.89-18.336 2.631-26.816c3.52-8.48 9.487-15.718 17.137-20.793s16.64-7.757 25.821-7.704c10.813-0.218 21.361 3.363 29.806 10.12s14.255 16.26 16.416 26.859c2.413 9.968 1.442 20.456-2.76 29.812s-11.396 17.049-20.45 21.867c-9.055 4.818-19.453 6.489-29.561 4.747s-19.348-6.794-26.269-14.364zM1155.55 507.019h-92.45c-12.254 0-24.013-4.87-32.683-13.538s-13.534-20.425-13.534-32.684c0-12.259 4.864-24.016 13.534-32.684s20.429-13.538 32.683-13.538h92.45c12.254 0 24.013 4.87 32.683 13.538s13.534 20.425 13.534 32.684c0 12.259-4.864 24.015-13.534 32.684s-20.429 13.538-32.683 13.538zM2025.463 624.424l-387.345 64.711c-221.867 189.973-333.261 335.111-817.668 265.778-152.995-21.724-218.168-24.96-314.773-77.653-378.097-206.152-442.346-219.093-480.249-332.338-30.044-89.671-25.422-67.484-25.422-222.791 0-49.036 19.479-96.063 54.153-130.736s81.701-54.153 130.737-54.153h143.288c10.609-52.241 38.953-99.217 80.23-132.949 41.277-33.741 92.948-52.173 146.259-52.173s104.982 18.432 146.259 52.173c41.277 33.732 69.622 80.708 80.23 132.949h656.355c10.607-52.241 38.955-99.217 80.23-132.949 41.276-33.741 92.945-52.173 146.261-52.173 53.308 0 104.977 18.432 146.253 52.173 41.284 33.732 69.623 80.708 80.23 132.949h143.292c49.033 0 96.060 19.48 130.739 54.153 34.671 34.673 54.153 81.7 54.153 130.736v74.417c-0.026 54.705-19.456 107.628-54.835 149.355s-84.412 69.549-138.377 78.521zM1088.998 876.797c197.376 0 305.536-100.764 403.985-184.889h-851.875l105.848 159.005c112.794 20.588 227.439 29.263 342.042 25.884zM110.477 507.020c33.28 0 46.223 2.311 61.013-14.329 6.207-6.509 10.38-14.688 12.007-23.534s0.639-17.975-2.845-26.266c-3.483-8.293-9.311-15.388-16.767-20.418s-16.219-7.774-25.213-7.898h-46.223c-1.67 31.828 4.521 63.577 18.027 92.445zM554.673 44.8c-27.426 0-54.235 8.132-77.039 23.364-22.804 15.241-40.577 36.898-51.073 62.234-10.495 25.338-13.241 53.219-7.891 80.118s18.557 51.607 37.95 71c19.393 19.393 44.101 32.599 71 37.95s54.78 2.604 80.118-7.892c25.338-10.495 46.995-28.268 62.232-51.072s23.369-49.614 23.369-77.039c0-36.777-14.61-72.044-40.614-98.054-26.005-26.001-61.275-40.61-98.052-40.61zM1664.009 44.8c-27.426 0-54.238 8.132-77.039 23.364-22.81 15.241-40.576 36.898-51.072 62.234-10.496 25.338-13.244 53.219-7.893 80.118s18.56 51.607 37.948 71c19.396 19.393 44.1 32.599 70.997 37.95 26.906 5.35 54.784 2.604 80.119-7.892 25.344-10.495 46.993-28.268 62.234-51.072s23.373-49.614 23.373-77.039c0-36.777-14.609-72.044-40.619-98.054-26.001-26.001-61.278-40.61-98.048-40.61zM2033.783 229.687h-143.292c-10.607 52.244-38.946 99.215-80.23 132.952-41.276 33.738-92.945 52.169-146.253 52.169-53.316 0-104.986-18.43-146.261-52.169s-69.623-80.707-80.23-132.952h-656.355c-10.609 52.244-38.953 99.215-80.23 132.952s-92.948 52.169-146.259 52.169c-53.311 0-104.982-18.43-146.259-52.169s-69.622-80.707-80.23-132.952h-143.288c-24.518 0-48.032 9.739-65.369 27.076s-27.076 40.85-27.076 65.368h46.223c33.109 0.364 64.996 12.563 89.893 34.392s41.161 51.846 45.852 84.623c4.691 32.777-2.503 66.151-20.279 94.087s-44.961 48.587-76.64 58.222c5.084 2.312 384.107 214.009 442.347 231.112l-55.467-83.2c-8.794-13.883-13.728-29.858-14.294-46.282s3.255-32.701 11.072-47.156c7.816-14.455 19.344-26.566 33.397-35.084s30.123-13.137 46.554-13.38c1167.574 0 869.906 17.103 1369.106-66.097 29.568-4.629 56.841-18.7 77.747-40.111 20.915-21.411 34.338-49.012 38.263-78.681h-46.217c-12.262 0-24.021-4.869-32.683-13.538-8.67-8.668-13.542-20.425-13.542-32.684s4.873-24.016 13.542-32.684c8.661-8.668 20.42-13.538 32.683-13.538h46.217c0-24.518-9.737-48.032-27.076-65.368-17.331-17.337-40.849-27.076-65.365-27.076z" />
<glyph unicode="&#xe929;" glyph-name="instagram" horiz-adv-x="956" d="M477.738 649.29c-87.747 0-159.354-71.609-159.354-159.357s71.608-159.357 159.354-159.357c87.746 0 159.354 71.609 159.354 159.357s-71.608 159.357-159.354 159.357zM955.679 489.933c0 65.99 0.601 131.383-3.106 197.253-3.707 76.511-21.163 144.413-77.107 200.361-56.067 56.068-123.849 73.402-200.358 77.108-65.989 3.706-131.381 3.108-197.25 3.108-65.989 0-131.38 0.598-197.25-3.108-76.509-3.706-144.411-21.16-200.358-77.108-56.067-56.067-73.401-123.851-77.106-200.361-3.706-65.99-3.108-131.383-3.108-197.253s-0.598-131.383 3.108-197.253c3.706-76.514 21.159-144.412 77.106-200.363 56.067-56.067 123.849-73.4 200.358-77.107 65.989-3.707 131.381-3.106 197.25-3.106 65.989 0 131.38-0.601 197.25 3.106 76.509 3.707 144.413 21.163 200.358 77.107 56.067 56.067 73.4 123.849 77.107 200.363 3.823 65.871 3.106 131.262 3.106 197.253zM477.738 244.743c-135.684 0-245.187 109.505-245.187 245.191s109.503 245.191 245.187 245.191c135.683 0 245.185-109.505 245.185-245.191s-109.502-245.191-245.185-245.191zM732.966 687.904c-31.676 0-57.261 25.583-57.261 57.263s25.585 57.263 57.261 57.263c31.683 0 57.262-25.583 57.262-57.263 0.014-7.522-1.461-14.973-4.335-21.925s-7.093-13.268-12.411-18.588c-5.325-5.319-11.639-9.537-18.589-12.411s-14.404-4.349-21.927-4.34z" />
<glyph unicode="&#xe92a;" glyph-name="inventory" d="M254.399 643.202l-81.599 17.599c-22.4 4.801-43.2-12.8-43.2-35.2v-33.599c0-27.201 19.2-33.601 46.4-33.601h92.8c22.4 0 30.399 9.6 30.399 22.4v4.801c1.601 27.199-17.599 51.2-44.8 57.6zM160 590.401v35.2c0 3.2 3.2 6.4 6.4 4.801l81.599-17.601c11.201-3.2 19.2-12.8 20.801-23.999-41.6 1.599-104 0-108.8 1.599zM361.6 542.401h201.6c8.001 0 16 6.4 16 16s-6.4 16-16 16h-201.6c-7.999 0-16-6.4-16-16s8.001-16 16-16zM1015.999 30.399l-111.998 179.2c71.999 73.602 87.999 188.802 30.399 278.402-17.599 27.199-40.001 51.2-67.2 68.799v83.2c0 27.201-7.999 55.999-25.6 80h39.999c24.001 0 43.201 19.2 43.201 43.201v17.599c0 24-19.2 43.2-43.201 43.2h-27.199c-25.6 0-48-12.8-64-33.6l-62.401 128c-12.8 32-43.199 54.4-78.399 54.4h-374.4c-35.2 0-65.601-20.8-78.401-52.8l-62.399-129.6c-14.4 20.8-38.4 33.6-64 33.6h-27.2c-24 0-43.2-19.2-43.2-43.2v-17.599c0-24.001 19.2-43.201 43.2-43.201h40c-17.6-22.4-25.6-51.2-25.6-80v-96c0-36.799 12.8-72.001 38.4-102.4v-72.001c0-32 25.6-57.6 57.6-57.6h59.201c32 0 57.6 25.6 57.6 57.6v28.802h246.398c-6.4-51.2 3.202-104.001 32-150.402 56.001-89.6 164.801-128 264.001-94.399l112-179.2c16-25.6 48-32 73.6-17.599 25.6 15.998 32 47.998 17.599 73.598zM854.4 791.999h27.199c6.4 0 11.201-4.799 11.201-11.199v-17.599c0-6.4-4.801-11.201-11.201-11.201h-68.799c-1.601 1.599-3.2 4.801-6.4 7.999 4.799 3.202 16 32 48 32zM225.601 907.2c7.999 20.8 27.199 33.6 49.599 33.6h374.4c22.4 0 41.6-12.8 51.2-35.2 6.4-12.8 71.999-150.4 80-161.599h-635.2c6.4 11.199 0-3.202 80.001 163.199zM32 763.201v17.599c0 6.4 4.8 11.199 11.2 11.199h27.2c16 0 30.4-7.999 38.4-20.799l8-12.8c-1.6-3.2-3.2-4.801-6.4-7.999h-67.2c-6.4 1.599-11.2 6.4-11.2 12.8zM240 371.2c0-14.401-11.201-25.6-25.6-25.6h-60.8c-14.4 0-25.6 11.199-25.6 25.6v46.401c19.2-11.201 41.6-17.601 64-17.601h48v-28.8zM190.399 430.399c-59.199 0-102.399 56.001-102.399 115.202v96c0 27.199 11.2 52.799 30.4 73.598h686.399c20.801-20.799 30.401-46.399 30.401-73.598v-65.601c-12.8 6.4-27.199 11.199-39.999 14.401v36.799c0 23.999-22.402 40.001-43.201 35.2l-81.601-17.601c-25.6-6.4-44.8-28.798-44.8-55.999 0-3.2-1.599-12.8 6.4-20.801l-9.598-4.799c-22.402-14.401-40.001-30.399-56.001-49.599h-204.8c-7.999 0-16-6.4-16-16.002 0-9.598 6.4-15.998 16-15.998h182.4c-9.6-16.002-16-33.601-20.801-49.601h-332.8v-1.601zM691.2 588.8h-35.2c1.599 11.199 9.6 20.801 20.799 22.4 1.601 0 1.601 0 0 0l83.2 17.601c3.202 0 6.4-1.601 6.4-4.801v-32c-25.6 4.801-51.2 3.2-75.199-3.2zM576 265.6c-57.6 91.199-28.8 212.799 62.399 270.399 91.201 57.6 212.801 28.802 270.401-62.399s28.8-212.801-62.399-270.401c-92.802-57.6-212.801-30.399-270.401 62.401zM982.4-16c-9.6-6.4-24.001-3.2-30.401 6.4l-108.8 174.399c6.4 3.202 12.8 6.4 19.2 11.201 6.4 3.2 12.8 7.999 17.601 12.8l108.8-174.399c6.4-11.201 3.2-24.001-6.4-30.401z" />
<glyph unicode="&#xe92b;" glyph-name="km" horiz-adv-x="1158" d="M579.677 956.52c-311.815 0-564.591-252.773-564.591-564.59 0-156.503 63.694-298.118 166.548-400.375l84.217 84.213c-78.145 77.557-127.577 183.91-131.321 301.8h64.24c2.966 0 5.902 0.583 8.643 1.719 2.74 1.131 5.23 2.796 7.326 4.893s3.76 4.586 4.895 7.328c1.134 2.738 1.718 5.677 1.718 8.642 0 12.466-10.108 22.577-22.582 22.577h-63.421c6.825 99.902 46.557 190.718 108.485 261.753l46.164-46.168c8.816-8.823 23.119-8.823 31.935 0 8.823 8.821 8.823 23.117 0 31.935l-46.747 46.754c74.543 69.854 173.040 114.437 281.909 119.87v-58.976c0-12.467 10.111-22.575 22.581-22.575s22.581 10.108 22.581 22.575v58.98c110.383-5.507 210.098-51.282 284.997-122.813l-43.809-43.812c-8.82-8.818-8.82-23.114 0-31.935 8.82-8.823 23.116-8.823 31.935 0l42.937 42.939c60.327-70.551 98.967-160.13 105.686-258.523h-69.717c-12.466 0-22.581-10.111-22.581-22.577 0-12.475 10.115-22.581 22.581-22.581h70.531c-3.74-117.894-53.181-224.243-131.321-301.8l84.213-84.213c102.863 102.262 166.551 243.872 166.551 400.375 0 311.815-252.772 564.586-564.585 564.586zM815.754 615.793c-16.673 14.284-36.886-8.423-55.296-24.619l-227.511-212.347c-13.94-14.897-10.195-41.071 8.375-58.457l3.74-3.486c18.566-17.381 44.931-19.394 58.88-4.501l189.64 243.608c17.154 22.478 37.158 45.006 24.589 57.501l-2.418 2.301z" />
<glyph unicode="&#xe92c;" glyph-name="km1" horiz-adv-x="1303" d="M572.14 260.999l558.542 558.545c4.329 4.324 9.458 7.754 15.109 10.095s11.711 3.545 17.827 3.545c6.116 0 12.167-1.205 17.818-3.545s10.789-5.771 15.109-10.095c4.329-4.325 7.754-9.459 10.1-15.109 2.337-5.651 3.547-11.707 3.547-17.822s-1.21-12.172-3.547-17.822c-2.346-5.651-5.772-10.785-10.1-15.109l-558.542-558.545c-4.324-4.325-9.458-7.755-15.109-10.096s-11.706-3.545-17.822-3.545c-6.116 0-12.172 1.205-17.822 3.545s-10.784 5.771-15.109 10.096c-4.324 4.324-7.754 9.458-10.096 15.109s-3.545 11.706-3.545 17.822c0 6.115 1.205 12.172 3.545 17.822s5.772 10.784 10.096 15.109zM651.617 646.977c40.431 0.051 80.6-6.493 118.924-19.375 5.819-2.063 11.99-2.947 18.154-2.603s12.198 1.912 17.75 4.612c5.553 2.699 10.513 6.475 14.591 11.11s7.194 10.033 9.167 15.883c1.972 5.851 2.76 12.035 2.319 18.192s-2.102 12.167-4.887 17.676c-2.785 5.509-6.639 10.409-11.337 14.416s-10.145 7.037-16.025 8.917c-74.175 25.006-153.459 30.902-230.515 17.142s-149.401-46.731-210.336-95.863c-60.936-49.133-108.497-112.84-138.283-185.228s-40.834-151.119-32.124-228.909c1.259-11.378 6.666-21.892 15.188-29.534s19.561-11.876 31.009-11.891c1.687 0 3.432 0 5.178 0.29 12.267 1.36 23.491 7.537 31.205 17.171s11.285 21.937 9.93 34.204c-1.516 13.756-2.272 27.586-2.27 41.425 0.108 98.724 39.374 193.373 109.182 263.182s164.458 109.074 263.182 109.182zM1231.919 571.341c-2.783 5.44-6.619 10.277-11.273 14.236-4.664 3.958-10.054 6.96-15.872 8.835s-11.953 2.585-18.041 2.091c-6.097-0.495-12.027-2.185-17.473-4.974-5.437-2.789-10.277-6.622-14.234-11.28s-6.963-10.051-8.834-15.869c-1.88-5.819-2.588-11.95-2.095-18.043s2.188-12.029 4.971-17.469c34.444-67.624 54.775-141.539 59.774-217.26s-5.437-151.67-30.683-223.235l-1053.669 0.408c-29.398 84.269-38.226 174.344-25.749 262.717s45.898 172.483 97.476 245.32c51.578 72.836 119.82 132.288 199.038 173.4s167.113 62.691 256.362 62.942h5.12c86.686-0.546 172.029-21.472 249.135-61.091 5.455-3.002 11.457-4.88 17.65-5.52s12.452-0.034 18.41 1.788c5.949 1.821 11.478 4.818 16.254 8.815s8.704 8.909 11.543 14.45c2.839 5.54 4.543 11.594 5.008 17.804 0.456 6.209-0.335 12.448-2.327 18.346s-5.148 11.338-9.281 15.994c-4.133 4.656-9.16 8.437-14.783 11.116-116.076 59.455-247.32 82.712-376.758 66.765s-251.111-70.367-349.283-156.219c-98.172-85.852-168.325-199.186-201.384-325.342s-27.504-259.33 15.947-382.295c6.419-18.215 18.322-34.003 34.075-45.184 15.752-11.171 34.581-17.203 53.896-17.25h1053.497c19.307-0.009 38.139 5.986 53.89 17.147s27.639 26.95 34.025 45.17c29.352 83.497 41.453 172.085 35.551 260.395s-29.677 174.503-69.883 253.351v-0.058z" />
<glyph unicode="&#xe92d;" glyph-name="linkedin" horiz-adv-x="964" d="M215.733 4.626h-199.814v643.454h199.814v-643.454zM115.719 735.853c-63.894 0-115.719 52.923-115.719 116.816 0 30.69 12.192 60.124 33.893 81.826s51.135 33.893 81.825 33.893c30.691 0 60.124-12.192 81.826-33.893s33.893-51.135 33.893-81.826c0-63.893-51.847-116.816-115.719-116.816zM963.572 4.626h-199.385v313.23c0 74.649-1.506 170.382-103.888 170.382-103.885 0-119.804-81.104-119.804-165.003v-318.609h-199.599v643.454h191.639v-87.774h2.797c26.676 50.556 91.838 103.908 189.058 103.908 202.222 0 239.399-133.166 239.399-306.134v-353.455h-0.217z" />
<glyph unicode="&#xe92e;" glyph-name="list" horiz-adv-x="1260" d="M1197.497 40.873h-842.765c-34.734 0-62.886 28.152-62.886 62.889 0 34.729 28.152 62.881 62.886 62.881h842.741c34.737 0 62.889-28.152 62.889-62.881 0-34.737-28.136-62.889-62.866-62.889zM1197.497 435.565h-842.765c-34.734 0-62.886 28.152-62.886 62.886s28.152 62.887 62.886 62.887h842.741c34.737 0 62.889-28.152 62.889-62.887 0.016-34.734-28.136-62.886-62.866-62.886zM1197.497 830.335h-842.765c-34.734 0-62.886 28.152-62.886 62.886s28.152 62.887 62.886 62.887h842.741c34.737 0 62.889-28.152 62.889-62.887s-28.136-62.886-62.866-62.886zM84.456 803.887c46.644 0 84.456 37.812 84.456 84.456s-37.812 84.456-84.456 84.456c-46.644 0-84.456-37.812-84.456-84.456s37.812-84.456 84.456-84.456zM84.456 414.041c46.644 0 84.456 37.812 84.456 84.456s-37.812 84.456-84.456 84.456c-46.644 0-84.456-37.812-84.456-84.456s37.812-84.456 84.456-84.456zM84.456 24.119c46.644 0 84.456 37.809 84.456 84.456 0 46.639-37.812 84.456-84.456 84.456s-84.456-37.816-84.456-84.456c0-46.647 37.812-84.456 84.456-84.456z" />
<glyph unicode="&#xe930;" glyph-name="mail" d="M64 602.893v-366.081c0-33.946 13.485-66.502 37.491-90.509s56.562-37.491 90.509-37.491h640c33.946 0 66.502 13.485 90.509 37.491s37.491 56.563 37.491 90.509v366.081l-380.928-234.367c-20.171-12.41-43.389-18.98-67.072-18.98s-46.901 6.57-67.072 18.98l-380.928 234.367zM960 678.059v6.741c0 33.948-13.485 66.505-37.491 90.509s-56.563 37.491-90.509 37.491h-640c-33.948 0-66.505-13.485-90.509-37.491s-37.491-56.562-37.491-90.509v-6.741l414.464-255.062c10.086-6.205 21.695-9.49 33.536-9.49s23.45 3.285 33.536 9.49l414.464 255.062z" />
<glyph unicode="&#xe932;" glyph-name="max-power" d="M512.028 940.749c-68.339 0.124-135.913-14.393-198.17-42.573-1.964-0.893-3.722-2.173-5.179-3.763-1.454-1.59-2.575-3.457-3.292-5.489s-1.016-4.189-0.881-6.34c0.136-2.151 0.704-4.252 1.669-6.179l28.605-57.268c1.851-3.687 5.053-6.518 8.94-7.904s8.156-1.219 11.924 0.465c49.213 21.922 102.508 33.195 156.383 33.079 69.729 0.035 138.15-18.932 197.911-54.862 59.758-35.93 108.598-87.466 141.266-149.068 32.671-61.604 47.936-130.944 44.157-200.571s-26.46-136.906-65.605-194.611l-50.435 50.496c-2.248 2.214-5.1 3.717-8.197 4.316-3.098 0.602-6.305 0.274-9.216-0.94-2.913-1.213-5.404-3.261-7.158-5.885-1.754-2.621-2.693-5.706-2.703-8.86v-175.98c0-8.829 7.076-16.026 15.905-16.084h175.977c3.182-0.015 6.295 0.916 8.945 2.675 2.647 1.761 4.713 4.268 5.934 7.206 1.219 2.936 1.536 6.172 0.911 9.29s-2.163 5.98-4.419 8.223l-56.724 56.724c60.736 82.202 93.504 181.716 93.491 283.922-0.064 127.296-50.66 249.357-140.672 339.369-90.010 90.011-212.073 140.547-339.369 140.611zM79.945 828.873c-3.163-0.009-6.252-0.954-8.879-2.715s-4.674-4.261-5.883-7.184c-1.209-2.922-1.526-6.138-0.912-9.24s2.134-5.954 4.365-8.195l56.724-56.724c-60.692-82.261-93.398-181.819-93.311-284.045 0.063-80.253 20.236-159.214 58.675-229.663 38.439-70.451 93.92-130.145 161.373-173.629s144.726-69.373 224.761-75.302c80.036-5.926 160.282 8.297 233.403 41.37 1.956 0.901 3.712 2.184 5.161 3.776s2.563 3.461 3.272 5.491c0.712 2.033 1.006 4.188 0.868 6.336-0.141 2.148-0.712 4.244-1.679 6.17l-28.667 57.206c-1.851 3.674-5.041 6.492-8.914 7.877s-8.128 1.229-11.889-0.438c-49.211-21.942-102.502-33.234-156.385-33.139-69.734-0.061-138.166 18.885-197.942 54.799-59.777 35.912-108.635 87.439-141.324 149.036-32.69 61.599-47.974 130.941-44.211 200.576 3.763 69.632 26.431 136.924 65.569 194.639l50.617-50.493c2.248-2.217 5.099-3.717 8.197-4.319s6.305-0.274 9.216 0.94c2.913 1.216 5.404 3.261 7.158 5.885s2.693 5.706 2.703 8.863v175.977c0 4.25-1.69 8.326-4.695 11.332s-7.081 4.694-11.331 4.694l-176.039 0.121zM543.173 732.841c-2.563-0.142-5.053-0.897-7.263-2.202-2.212-1.305-4.076-3.121-5.437-5.297l-191.941-304.002c-1.518-2.414-2.365-5.189-2.45-8.041-0.087-2.849 0.589-5.673 1.956-8.174 1.37-2.501 3.379-4.595 5.827-6.060s5.24-2.25 8.092-2.276h126.751l-14.633-190.794c-1.211-16.509 20.439-23.706 29.389-9.797l192.064 304.061c1.526 2.427 2.373 5.22 2.452 8.084 0.079 2.867-0.614 5.701-2.002 8.21-1.39 2.506-3.428 4.595-5.901 6.049-2.47 1.452-5.289 2.214-8.156 2.207h-126.692l14.756 190.735c0.195 2.273-0.102 4.561-0.868 6.711s-1.984 4.11-3.571 5.748c-1.587 1.639-3.507 2.919-5.632 3.753-2.122 0.834-4.462 1.203-6.74 1.083z" />
<glyph unicode="&#xe933;" glyph-name="max-torque" d="M475.837 460.902l-126.935 126.935c-30.062 29.996-78.738 29.996-108.8 0l-72.54-72.54c-29.995-30.062-29.995-78.738 0-108.8l126.945-126.935 181.33 181.34zM639.037 297.7l-126.93 126.932-181.34-181.33 126.935-126.94c30.062-29.998 78.738-29.998 108.8 0l72.538 72.535c29.996 30.062 29.996 78.738 0 108.8l-0.003 0.003zM76.898 279.562l72.54 72.54 253.87-253.87-72.54-72.535-253.87 253.865zM22.505 225.167c-30.007-30.062-30.007-78.738 0-108.8l36.258-36.27c-19.871-20.058-19.806-52.401 0.161-72.376 19.967-19.968 52.32-20.032 72.378-0.154l36.26-36.268c30.062-29.996 78.738-29.996 108.8 0l18.145 18.132-253.87 253.87-18.133-18.135zM1001.708 841.706c29.819 30.079 29.716 78.605-0.243 108.564-29.949 29.949-78.472 30.053-108.554 0.236l-90.675-90.665 108.81-108.8 90.662 90.665zM892.91 587.837c29.996 30.062 29.996 78.738 0 108.8l-145.070 145.069c-30.062 29.995-78.738 29.995-108.8 0l-235.732-235.734 253.868-253.87 235.735 235.735z" />
<glyph unicode="&#xe935;" glyph-name="minus" horiz-adv-x="8192" d="M7936 460.8c0-84.869-33.69-166.262-93.747-226.273-60.006-60.012-141.363-93.727-226.253-93.727h-7040c-84.869 0-166.262 33.715-226.274 93.727s-93.726 141.404-93.726 226.273c0 84.869 33.714 166.262 93.726 226.274s141.405 93.726 226.274 93.726h7040c84.89 0 166.246-33.714 226.253-93.726 60.058-60.012 93.747-141.405 93.747-226.274z" />
<glyph unicode="&#xe939;" glyph-name="next" horiz-adv-x="1229" d="M753.024 957.824l460.8-460.8c4.762-4.755 8.535-10.402 11.116-16.617 2.575-6.216 3.901-12.878 3.901-19.607s-1.326-13.389-3.901-19.605c-2.58-6.216-6.354-11.863-11.116-16.62l-460.8-460.8c-9.605-9.605-22.636-15.002-36.224-15.002s-26.619 5.396-36.224 15.002c-9.605 9.605-15.007 22.636-15.007 36.224s5.402 26.619 15.007 36.224l373.437 373.376h-1002.813c-13.579 0-26.602 5.396-36.204 14.996s-14.996 22.625-14.996 36.204c0 13.579 5.394 26.602 14.996 36.204s22.625 14.996 36.204 14.996h1002.813l-373.437 373.376c-9.605 9.607-15.007 22.637-15.007 36.224s5.402 26.617 15.007 36.224c9.605 9.607 22.636 15.004 36.224 15.004s26.619-5.397 36.224-15.004z" />
<glyph unicode="&#xe93c;" glyph-name="number" horiz-adv-x="1092" d="M1058.133 426.636c0-11.316-4.499-22.168-12.5-30.17s-18.855-12.497-30.167-12.497h-597.335c-11.316 0-22.168 4.495-30.17 12.497s-12.497 18.854-12.497 30.17c0 11.316 4.495 22.168 12.497 30.17s18.854 12.497 30.17 12.497h597.335c11.312 0 22.166-4.495 30.167-12.497s12.5-18.854 12.5-30.17zM418.131 725.303h597.335c11.312 0 22.166 4.495 30.167 12.497s12.5 18.854 12.5 30.17c0 11.316-4.499 22.168-12.5 30.17s-18.855 12.497-30.167 12.497h-597.335c-11.316 0-22.168-4.495-30.17-12.497s-12.497-18.854-12.497-30.17c0-11.316 4.495-22.168 12.497-30.17s18.854-12.497 30.17-12.497zM1015.467 127.973h-597.335c-11.316 0-22.168-4.499-30.17-12.5s-12.497-18.855-12.497-30.167c0-11.319 4.495-22.173 12.497-30.174s18.854-12.493 30.17-12.493h597.335c11.312 0 22.166 4.492 30.167 12.493s12.5 18.855 12.5 30.174c0 11.312-4.499 22.166-12.5 30.167s-18.855 12.5-30.167 12.5zM95.891 815.116l23.573 11.84v-272.321c0-11.316 4.495-22.168 12.497-30.17s18.854-12.497 30.17-12.497c11.316 0 22.169 4.495 30.17 12.497s12.496 18.854 12.496 30.17v341.333c0.005 7.277-1.851 14.434-5.391 20.791s-8.648 11.703-14.837 15.53c-6.189 3.827-13.254 6.007-20.523 6.334s-14.501-1.211-21.008-4.468l-85.334-42.666c-10.128-5.064-17.829-13.943-21.41-24.686-1.773-5.319-2.481-10.935-2.083-16.527s1.893-11.052 4.4-16.067c2.507-5.014 5.978-9.486 10.213-13.16s9.153-6.476 14.472-8.249c10.742-3.581 22.467-2.748 32.594 2.316zM288.905 273.463c-2.359 16.899-8.111 33.146-16.91 47.764s-20.462 27.307-34.29 37.303c-27.695 20.111-62.095 28.732-96.002 24.060s-64.693-22.275-85.918-49.127c-8.112-10.416-14.537-22.043-19.040-34.454-2.351-5.342-3.582-11.108-3.615-16.945s1.131-11.619 3.421-16.985c2.29-5.373 5.657-10.213 9.893-14.227s9.251-7.12 14.734-9.12c5.483-1.993 11.318-2.847 17.145-2.505 5.826 0.348 11.519 1.884 16.727 4.519s9.821 6.308 13.552 10.793c3.731 4.492 6.503 9.694 8.142 15.299 1.494 4.089 3.617 7.926 6.294 11.36 7.526 9.377 18.379 15.492 30.299 17.071s23.991-1.498 33.701-8.593c4.67-3.304 8.62-7.523 11.609-12.397 2.989-4.881 4.955-10.315 5.778-15.974 0.752-5.441 0.399-10.97-1.040-16.268s-3.933-10.254-7.333-14.561c-0.156-0.184-0.298-0.382-0.427-0.587l-153.013-204.37c-4.742-6.342-7.624-13.879-8.326-21.77-0.701-7.885 0.807-15.817 4.355-22.897s8.997-13.032 15.736-17.19c6.739-4.157 14.503-6.362 22.422-6.356h170.667c11.316 0 22.169 4.492 30.17 12.493s12.496 18.855 12.496 30.174c0 11.312-4.495 22.166-12.496 30.167s-18.855 12.5-30.17 12.5h-85.333l101.76 136.158c10.317 13.285 17.85 28.522 22.147 44.783 4.297 16.268 5.272 33.232 2.866 49.882z" />
<glyph unicode="&#xe93d;" glyph-name="offer" horiz-adv-x="990" d="M272.534 297.602l-86.402 19.2c-23.999 4.799-44.799-12.8-44.799-36.801v-36.799c0-28.8 22.4-33.601 49.6-35.2h99.2c17.599 0 32 6.4 32 23.999v4.801c-1.601 30.399-20.801 54.4-49.599 60.8zM171.733 241.601v40.001c0 4.799 3.2 7.999 8.001 6.4l87.999-19.2c12.8-3.2 22.4-14.401 23.999-27.201-3.2-1.599-118.398-1.599-119.999 0zM803.734 316.802l-88.001-19.2c-28.8-6.4-48-30.401-48-59.201 0-1.599-3.2-22.4 19.2-27.199 11.199-3.2 83.2-1.601 113.599-1.601 27.201 0 48 6.4 48 35.2v36.801c1.601 22.4-20.799 39.999-44.798 35.2zM818.133 241.601c-4.801-1.599-116.799-1.599-118.4-1.599 1.601 12.8 9.6 23.999 22.4 27.199l88.001 19.2c4.799 1.601 7.999-1.599 7.999-6.4v-38.4zM602.132 224.002h-214.4c-7.999 0-16-6.4-16-16s6.4-16 16-16h214.4c8.001 0 16.002 6.4 16.002 16s-6.4 16-16.002 16zM602.132 158.401h-214.4c-7.999 0-16-6.4-16-16s6.4-16 16-16h214.4c8.001 0 16.002 6.4 16.002 16s-6.4 16-16.002 16zM942.933 489.6h-28.8c-27.199 0-52.799-12.8-67.2-36.801l-28.8 57.6c83.2 38.4 140.8 121.6 140.8 219.201-1.599 134.4-110.399 243.2-243.2 243.2s-241.601-108.8-241.601-241.599c0-28.802 4.801-56.001 14.401-81.601h-193.601c-36.799 0-70.4-22.4-83.2-56.001l-67.199-139.199c-14.4 22.4-40 36.799-67.2 36.799h-30.4c-24 0-44.8-20.799-44.8-44.8v-19.198c0-24.001 19.2-44.802 44.8-44.802h46.4c-19.2-23.999-28.8-54.398-28.8-86.398v-102.4c0-38.4 14.4-76.8 41.6-108.8v-76.8c0-33.601 27.2-59.201 59.2-59.201h64c33.599 0 59.199 27.201 59.199 59.201v30.399h411.201v-30.399c0-33.601 27.201-59.201 59.201-59.201h64c33.599 0 59.199 27.201 59.199 59.201v76.8c27.199 30.399 41.6 67.198 41.6 107.199v102.4c0 19.2-4.799 40.001-12.8 57.6-4.799 9.6-9.6 19.2-17.599 28.8h49.599c23.999 0 44.8 19.2 44.8 44.8v19.2c-1.601 25.6-20.801 44.8-44.8 44.8zM715.733 940.8c116.799 0 211.2-94.4 211.2-209.599s-94.401-209.601-209.601-209.601c-115.2 0-209.599 94.401-209.599 209.601s92.8 209.599 208 209.599zM240.534 580.799c7.999 22.402 30.399 36.801 54.398 36.801h208.002c39.999-76.8 119.999-128 212.799-128 25.6 0 49.601 3.2 71.999 11.201 1.601-1.601 40.001-83.2 46.401-94.401h-680c6.4 9.6-3.2-12.8 86.401 174.399zM34.133 427.201v19.198c0 8.001 6.4 14.401 12.8 14.401h28.8c35.2 0 48-32 51.2-36.799-1.6-3.202-4.8-6.4-6.4-9.602h-73.6c-6.4 0-12.8 4.801-12.8 12.802zM258.133 9.6c0-16-12.8-28.8-28.8-28.8h-64c-16 0-28.8 12.8-28.8 28.8v51.2c20.8-12.8 44.8-19.2 68.799-19.2h52.801v-32zM824.533-19.2h-64c-16 0-28.8 12.8-28.8 28.8v30.401h52.799c24.001 0 48 6.4 68.801 19.2v-51.2c0-14.401-12.8-27.201-28.8-27.201zM894.933 195.2c0-64-46.401-123.199-110.401-123.199h-579.2c-63.999 0-110.399 60.798-110.399 123.199v102.4c0 28.8 11.2 57.6 33.6 78.399h734.4c9.6-9.598 17.601-20.799 24.001-33.599 6.4-14.399 9.598-30.401 9.598-44.8v-102.4h-1.599zM955.733 427.201c0-8.001-6.4-12.802-12.8-12.802h-73.6c-3.2 3.202-4.801 6.4-6.4 9.602 4.801 4.799 16 36.799 51.2 36.799h28.8c8.001 0 12.8-6.4 12.8-12.8v-20.799zM667.733 667.201c0 7.999-6.4 16-16 16s-16-6.4-16-16c0-38.4 27.201-70.4 64-76.8v-20.801c0-8.001 6.4-16 16-16s16 6.4 16 16v20.801c36.799 7.999 64 38.4 64 76.8s-27.201 70.4-64 76.8v95.999c19.2-6.4 32-24 32-44.799 0-8.001 6.4-16.002 16-16.002s16 6.4 16 16.002c0 38.399-27.201 70.399-64 76.799v20.8c0 8-6.4 16-16 16s-16-6.4-16-16v-20.8c-36.799-8-64-38.4-64-76.799s27.201-70.4 64-76.8v-94.401c-17.599 4.801-32 22.4-32 43.201zM763.733 667.201c0-20.801-14.401-38.4-32-44.8v89.6c19.2-4.801 32-24.001 32-44.8zM667.733 795.201c0 20.799 14.401 38.399 32 44.799v-91.2c-17.599 8.001-32 25.6-32 46.401z" />
<glyph unicode="&#xe93e;" glyph-name="owner" horiz-adv-x="1396" d="M744.728 241.611c72.966 45.445 129.145 113.419 160.038 193.637 30.89 80.217 34.819 168.314 11.188 250.963-23.633 82.648-73.542 155.35-142.174 207.108s-152.255 79.754-238.216 79.754c-85.96 0-169.583-27.997-238.215-79.754s-118.541-124.46-142.175-207.108c-23.633-82.649-19.705-170.745 11.188-250.963s87.074-148.191 160.039-193.637c-120.146-39.331-228.248-112.815-315.171-216.262-7.947-9.449-11.814-21.672-10.75-33.978 1.064-12.297 6.971-23.673 16.423-31.623 9.451-7.941 21.672-11.813 33.975-10.752 12.302 1.071 23.678 6.973 31.625 16.431 116.771 139.4 277.701 216.141 452.771 216.141s336-76.741 453.063-216.141c7.941-9.458 19.326-15.36 31.623-16.431 12.307-1.061 24.52 2.811 33.978 10.752 9.449 7.95 15.36 19.326 16.421 31.623 1.061 12.307-2.802 24.529-10.752 33.978-86.919 103.447-195.025 176.931-314.879 216.262zM232.728 577.204c0 59.838 17.744 118.332 50.988 168.085s80.496 88.531 135.779 111.431c55.283 22.899 116.114 28.89 174.802 17.216s112.596-40.488 154.909-82.8c42.312-42.312 71.126-96.221 82.8-154.909s5.682-119.519-17.216-174.802c-22.899-55.283-61.677-102.534-111.431-135.779s-108.247-50.988-168.085-50.988c-80.212 0.092-157.111 31.997-213.83 88.716s-88.623 133.618-88.716 213.83zM1382.754 381.364l-186.182-186.182c-4.329-4.328-9.458-7.761-15.109-10.103s-11.711-3.548-17.827-3.548c-6.116 0-12.176 1.206-17.827 3.548s-10.78 5.775-15.099 10.103l-93.091 93.091c-8.741 8.734-13.647 20.58-13.647 32.931s4.906 24.197 13.647 32.931c8.732 8.734 20.573 13.641 32.926 13.641s24.194-4.907 32.936-13.641l60.155-60.219 153.256 153.31c8.732 8.734 20.573 13.641 32.926 13.641s24.194-4.907 32.936-13.641c8.732-8.734 13.638-20.58 13.638-32.931s-4.906-24.197-13.638-32.931z" />
<glyph unicode="&#xe941;" glyph-name="phone2" d="M0 826.514c0 38.797 15.412 76.006 42.846 103.44s64.642 42.846 103.44 42.846h66.902c41.935 0 78.506-28.575 88.697-69.242l53.882-215.674c4.367-17.457 3.485-35.814-2.535-52.772s-16.91-31.762-31.306-42.558l-63.049-47.299c-6.583-4.925-7.997-12.142-6.144-17.164 27.521-74.842 70.978-142.809 127.364-199.195s124.353-99.842 199.195-127.366c5.023-1.851 12.191-0.439 17.164 6.144l47.299 63.051c10.797 14.396 25.601 25.286 42.558 31.306s35.315 6.902 52.774 2.535l215.669-53.882c40.667-10.191 69.244-46.762 69.244-88.746v-66.853c0-38.795-15.411-76.003-42.847-103.439s-64.644-42.847-103.439-42.847h-109.714c-424.131 0-768 343.869-768 768v109.714z" />
<glyph unicode="&#xe944;" glyph-name="plus" d="M1024 460.8c0-11.315-4.497-22.17-12.497-30.17s-18.854-12.497-30.17-12.497h-426.667v-426.667c0-11.315-4.497-22.17-12.497-30.17s-18.854-12.497-30.17-12.497c-11.315 0-22.17 4.497-30.17 12.497s-12.497 18.854-12.497 30.17v426.667h-426.667c-11.316 0-22.168 4.497-30.17 12.497s-12.497 18.854-12.497 30.17c0 11.315 4.495 22.17 12.497 30.17s18.854 12.497 30.17 12.497h426.667v426.667c0 11.316 4.497 22.168 12.497 30.17s18.854 12.497 30.17 12.497c11.315 0 22.17-4.495 30.17-12.497s12.497-18.854 12.497-30.17v-426.667h426.667c11.315 0 22.17-4.497 30.17-12.497s12.497-18.854 12.497-30.17z" />
<glyph unicode="&#xe945;" glyph-name="plus1" horiz-adv-x="1092" d="M1058.133 460.8c0-11.316-4.492-22.168-12.5-30.17-8.001-8.002-18.848-12.497-30.167-12.497h-426.667v-426.667c0-11.319-4.495-22.166-12.497-30.167-8.002-8.008-18.854-12.5-30.17-12.5s-22.168 4.492-30.17 12.5c-8.002 8.001-12.497 18.848-12.497 30.167v426.667h-426.667c-11.316 0-22.168 4.495-30.17 12.497s-12.497 18.854-12.497 30.17c0 11.316 4.495 22.168 12.497 30.17s18.854 12.497 30.17 12.497h426.667v426.667c0 11.316 4.495 22.168 12.497 30.17s18.854 12.497 30.17 12.497c11.316 0 22.168-4.495 30.17-12.497s12.497-18.854 12.497-30.17v-426.667h426.667c11.319 0 22.166-4.495 30.167-12.497 8.008-8.002 12.5-18.854 12.5-30.17z" />
<glyph unicode="&#xe947;" glyph-name="priev" horiz-adv-x="1229" d="M475.776 957.824l-460.8-460.8c-4.76-4.755-8.537-10.402-11.113-16.617s-3.903-12.878-3.903-19.607c0-6.728 1.326-13.389 3.903-19.605s6.353-11.863 11.113-16.62l460.8-460.8c9.607-9.605 22.638-15.002 36.224-15.002 13.588 0 26.619 5.396 36.224 15.002s15.007 22.636 15.007 36.224c0 13.588-5.402 26.619-15.007 36.224l-373.44 373.376h1002.816c13.578 0 26.604 5.396 36.204 14.996s14.996 22.625 14.996 36.204c0 13.579-5.396 26.602-14.996 36.204s-22.625 14.996-36.204 14.996h-1002.816l373.44 373.376c9.605 9.607 15.007 22.637 15.007 36.224s-5.402 26.617-15.007 36.224c-9.605 9.607-22.636 15.004-36.224 15.004-13.586 0-26.617-5.397-36.224-15.004z" />
<glyph unicode="&#xe94a;" glyph-name="red" horiz-adv-x="1134" d="M1028.568 269.941c-6.484 5.197-14.544 8.024-22.857 8.024-8.309 0-16.369-2.827-22.857-8.024-4.297-3.474-105.143-85.394-105.143-193.141 0-33.949 13.488-66.505 37.493-90.511 24.002-24.005 56.561-37.489 90.507-37.489 33.949 0 66.505 13.484 90.511 37.489s37.489 56.561 37.489 90.511c0 107.747-100.846 189.667-105.143 193.141zM1005.711 21.943c-14.548 0-28.5 5.778-38.788 16.066s-16.069 24.243-16.069 38.791c0 46.537 32 89.278 54.857 113.964 22.857-24.777 54.857-67.657 54.857-113.964 0-14.548-5.778-28.504-16.066-38.791s-24.24-16.066-38.791-16.066zM1013.299 470.718l-491.381 491.385c-6.857 6.853-16.157 10.703-25.852 10.703s-18.992-3.85-25.852-10.703l-185.644-185.874-112.457 112.731c-6.862 6.856-16.167 10.706-25.868 10.701s-19.002-3.862-25.858-10.724c-6.856-6.862-10.706-16.167-10.701-25.867s3.862-19.002 10.724-25.858l112.457-112.457-200.869-200.733c-20.574-20.575-32.132-48.479-32.132-77.575s11.558-57 32.132-77.579l388.069-388.067c20.575-20.575 48.479-32.132 77.575-32.132 29.1 0 57.004 11.557 77.579 32.132l438.078 438.078c3.416 3.401 6.126 7.439 7.973 11.886 1.851 4.451 2.801 9.22 2.801 14.036s-0.951 9.585-2.801 14.036c-1.847 4.447-4.557 8.485-7.973 11.882zM523.472 32.64c-6.857-6.853-16.157-10.704-25.852-10.704s-18.992 3.851-25.852 10.704l-387.93 387.931c-6.853 6.857-10.703 16.157-10.703 25.852s3.85 18.992 10.703 25.849l200.731 200.779 133.12-133.122c-14.61-27.052-18.995-58.459-12.35-88.477 6.641-30.021 23.87-56.645 48.527-75.008 24.66-18.363 55.106-27.235 85.771-24.997s59.498 15.44 81.229 37.189c21.731 21.753 34.907 50.597 37.116 81.262 2.213 30.665-6.685 61.104-25.070 85.749-18.384 24.642-45.027 41.845-75.052 48.461s-61.429 2.205-88.47-12.431l-133.072 133.076 160 159.771 439.632-439.634-412.478-412.251zM530.282 533.943c12.694-0.022 24.986-4.44 34.783-12.507s16.494-19.284 18.951-31.737c2.454-12.453 0.516-25.37-5.486-36.553s-15.693-19.939-27.429-24.777c-11.732-4.835-24.781-5.456-36.919-1.752-12.142 3.705-22.619 11.505-29.652 22.071s-10.185 23.241-8.92 35.869c1.265 12.628 6.872 24.426 15.861 33.386 10.302 10.269 24.265 16.022 38.81 16z" />
<glyph unicode="&#xe94d;" glyph-name="right2" horiz-adv-x="1170" d="M36.536 460.793c0-12.124 4.816-23.752 13.389-32.325s20.201-13.389 32.325-13.389h895.37l-333.428-333.371c-4.247-4.25-7.616-9.289-9.915-14.841s-3.482-11.498-3.482-17.503c0-6.005 1.183-11.952 3.482-17.503s5.668-10.591 9.915-14.841c4.247-4.25 9.29-7.614 14.839-9.911 5.549-2.304 11.497-3.489 17.504-3.489s11.954 1.185 17.504 3.489c5.549 2.297 10.592 5.661 14.839 9.911l411.429 411.429c4.25 4.245 7.621 9.288 9.925 14.837 2.297 5.549 3.482 11.498 3.482 17.506s-1.185 11.956-3.482 17.505c-2.304 5.55-5.676 10.592-9.925 14.837l-411.429 411.429c-8.578 8.578-20.212 13.397-32.343 13.397s-23.765-4.819-32.343-13.397c-8.578-8.578-13.397-20.212-13.397-32.343s4.819-23.766 13.397-32.343l333.428-333.371h-895.37c-12.124 0-23.752-4.816-32.325-13.39s-13.389-20.201-13.389-32.325z" />
<glyph unicode="&#xe94e;" glyph-name="search" d="M999.977 27.167l-240.333 240.287c69.658 83.63 104.392 190.899 96.978 299.487s-56.402 210.138-136.786 283.525c-80.379 73.386-185.953 112.959-294.767 110.486s-212.484-46.801-289.446-123.764c-76.962-76.962-121.29-180.633-123.763-289.446-2.473-108.815 37.1-214.389 110.486-294.768s174.937-129.372 283.525-136.786c108.588-7.414 215.857 27.32 299.487 96.978l240.287-240.333c3.569-3.569 7.803-6.4 12.462-8.33 4.664-1.93 9.661-2.924 14.705-2.924 5.048 0 10.040 0.993 14.705 2.924 4.659 1.93 8.899 4.762 12.462 8.33 3.569 3.569 6.4 7.803 8.33 12.462 1.93 4.664 2.924 9.661 2.924 14.705s-0.993 10.040-2.924 14.705c-1.93 4.659-4.762 8.893-8.33 12.462zM89.611 537.6c0 68.353 20.269 135.172 58.244 192.005s91.951 101.13 155.101 127.288c63.15 26.158 132.639 33.001 199.678 19.666s128.621-46.25 176.954-94.583 81.249-109.913 94.582-176.953c13.338-67.040 6.492-136.528-19.666-199.678s-70.456-117.125-127.288-155.1c-56.832-37.975-123.651-58.245-192.005-58.245-91.628 0.102-179.473 36.547-244.263 101.335-64.791 64.794-101.235 152.637-101.337 244.265z" />
<glyph unicode="&#xe950;" glyph-name="search-filter" horiz-adv-x="967" d="M935.361 59.29l-222.532 222.487c64.495 77.437 96.66 176.758 89.793 277.303-6.861 100.544-52.224 194.572-126.652 262.522s-172.182 104.592-272.935 102.302c-100.753-2.29-196.745-43.335-268.006-114.596s-112.306-167.253-114.596-268.005c-2.29-100.753 34.352-198.513 102.302-272.935 67.95-74.428 161.978-119.791 262.523-126.652 100.545-6.866 199.865 25.298 277.303 89.793l222.487-222.532c3.305-3.305 7.225-5.922 11.543-7.708 4.318-1.792 8.943-2.708 13.614-2.708s9.296 0.916 13.614 2.708c4.318 1.786 8.238 4.403 11.543 7.708 3.3 3.305 5.922 7.225 7.708 11.543 1.792 4.318 2.708 8.943 2.708 13.614s-0.916 9.296-2.708 13.614c-1.786 4.318-4.409 8.238-7.708 11.543zM92.427 531.911c0 63.29 18.768 125.159 53.93 177.783s85.139 93.639 143.612 117.859c58.472 24.22 122.813 30.557 184.887 18.21s119.093-42.824 163.847-87.577c44.749-44.753 75.23-101.771 87.575-163.845 12.351-62.074 6.013-126.416-18.21-184.888-24.218-58.471-65.234-108.448-117.857-143.611-52.625-35.163-114.494-53.931-177.784-53.931-84.84 0.097-166.179 33.838-226.17 93.833-59.991 59.989-93.736 141.327-93.83 226.167z" />
<glyph unicode="&#xe951;" glyph-name="seats" horiz-adv-x="853" d="M824.889-1.434c0-9.426-3.749-18.472-10.416-25.139s-15.713-10.416-25.139-10.416h-462.223c-9.43 0-18.474 3.749-25.141 10.416s-10.414 15.713-10.414 25.139c0 9.432 3.746 18.478 10.414 25.145s15.712 10.411 25.141 10.411h462.223c9.426 0 18.472-3.743 25.139-10.411s10.416-15.713 10.416-25.145zM824.889 318.566v-142.222c0-18.859-7.492-36.944-20.827-50.278-13.34-13.34-31.425-20.833-50.284-20.833h-417.29c-13.223-0.040-26.193 3.624-37.442 10.576s-20.325 16.913-26.202 28.757l-258.267 515.558c-4.91 9.89-7.465 20.781-7.465 31.823s2.555 21.933 7.465 31.822l98.311 195.556c8.344 16.653 22.89 29.366 40.509 35.408s36.906 4.93 53.713-3.097l151.822-64.178c16.857-8.439 29.674-23.226 35.633-41.111s4.572-37.404-3.855-54.267c-0.137-0.338-0.3-0.666-0.489-0.977l-63.111-116.978 141.244-284.447h285.424c18.859 0 36.944-7.492 50.284-20.827 13.335-13.335 20.827-31.42 20.827-50.284zM753.778 318.566h-285.468c-13.218-0.040-26.183 3.624-37.425 10.576s-20.31 16.913-26.175 28.757l-141.289 284.447c-4.899 9.869-7.448 20.738-7.448 31.756s2.549 21.886 7.448 31.755l0.533 0.978 63.156 116.978-148.578 62.711c-0.712 0.274-1.41 0.585-2.089 0.934l-98.222-195.556 258.222-515.558h417.335v142.222z" />
<glyph unicode="&#xe953;" glyph-name="service" d="M704.003 523.201c-36.799 36.799-96 33.599-115.2 20.799l-23.999 24.001 28.8 28.8c22.4 22.4 52.799 36.799 83.2 36.799 83.2 3.2 140.8 83.2 116.799 163.2-3.2 11.201-17.599 14.401-25.6 6.401l-57.6-57.601h-12.8l-39.999 40.001v12.8l57.6 57.6c7.999 8 4.799 22.4-6.4 25.6-80 24-160-35.2-163.2-116.801-1.601-30.399-14.401-60.8-36.801-83.2l-28.8-27.199-84.799 84.799 14.399 14.401c4.801 4.799 6.4 11.199 3.2 17.599l-17.599 36.801c-1.601 3.2-3.2 4.8-6.4 6.4l-91.201 51.2c-6.4 3.2-12.8 1.6-19.2-3.2l-27.199-27.2c-4.801-4.8-6.4-12.8-3.2-19.2l51.2-91.2c1.599-3.2 3.2-4.801 6.4-6.4l36.799-17.601c6.4-3.2 12.8-1.599 17.601 3.2l14.399 14.401 84.801-84.801-28.8-28.8c-22.4-22.4-52.801-36.799-83.2-36.799-83.2-3.2-140.8-83.2-116.801-163.2 3.2-11.201 17.601-14.401 25.6-6.4l57.6 57.6h12.8l40.001-40.001v-12.8l-57.6-57.6c-8.001-7.999-4.801-22.4 6.4-25.6 80-23.999 160 35.2 163.2 116.801 1.599 30.399 14.399 60.8 36.799 83.2l28.8 28.8 24.001-24.001c-16-23.999-16-78.399 20.799-113.599l92.8-92.8c24.001-24.001 62.401-24.001 86.4 0l28.8 28.8c24.001 23.999 24.001 62.399 0 86.4l-92.8 89.6zM345.603 732.8l-22.4 11.201-43.199 76.8 11.199 11.2 76.8-43.2 11.201-22.4-33.601-33.601zM492.803 540.8c-28.8-28.8-44.8-65.599-46.399-103.999-1.601-51.2-43.201-91.201-94.401-92.8l40.001 39.999c3.2 3.2 4.799 6.4 4.799 11.201v25.6c0 4.799-1.599 7.999-4.799 11.199l-49.601 49.601c-3.2 3.2-6.4 4.799-11.199 4.799h-25.6c-4.801 0-8.001-1.599-11.201-4.799l-38.4-41.6c0 51.2 41.6 92.8 92.8 94.399 38.4 1.601 75.201 17.601 104.001 46.401l80 80c28.8 28.8 44.8 65.599 46.399 103.999 1.601 51.201 43.201 91.201 94.401 92.801l-40.001-40c-3.2-3.2-4.799-6.4-4.799-11.2v-25.601c0-4.799 1.599-7.999 4.799-11.199l49.601-49.601c3.2-3.2 6.4-4.799 11.199-4.799h25.6c4.801 0 8.001 1.599 11.201 4.799l39.999 40.001c0-51.2-39.999-92.8-92.8-94.401-38.4-1.599-75.199-17.599-103.999-46.399l-81.601-78.401zM776.004 366.401l-28.8-28.8c-11.201-11.201-30.401-11.201-41.6 0l-92.8 92.8c-54.4 54.4 14.399 128 71.999 70.4l92.8-92.8c9.6-11.201 9.6-30.401-1.599-41.6zM654.401 480c-6.4 6.4-16.002 6.4-22.402 0-6.398-6.4-6.398-16 0-22.4l75.201-75.201c6.4-6.4 16-6.4 22.4 0s6.4 16 0 22.4l-75.199 75.201zM883.2 912l-55.999 56c-3.202 3.2-6.4 4.8-11.201 4.8h-608c-4.801 0-7.999-1.6-11.199-4.8l-56.001-56c-3.2-3.2-4.8-8-4.8-11.2v-608.001c0-4.799 1.6-7.999 4.8-11.199l56.001-55.999c3.2-3.202 6.398-4.801 11.199-4.801h225.599v-256c0-7.999 6.4-16 16.002-16 9.598 0 15.998 6.4 15.998 16v256h94.401v-256c0-7.999 6.4-16 16-16s16 6.4 16 16v256h224c4.801 0 7.999 1.599 11.201 4.801l55.999 55.999c3.2 3.2 4.799 6.4 4.799 11.199v608.001c0 3.2-1.599 8-4.799 11.2zM857.6 299.199l-46.401-46.399h-596.799l-46.4 46.399v595.201l46.4 46.4h595.2l46.399-46.4v-595.201h1.601z" />
<glyph unicode="&#xe956;" glyph-name="size" horiz-adv-x="1205" d="M1129.412 543.624h-59.717l-166.165 166.164c-6.969 7.022-15.258 12.59-24.395 16.379s-18.938 5.724-28.829 5.692h-191.482v112.941h112.941c9.987 0 19.558 3.966 26.618 11.027 7.066 7.060 11.029 16.636 11.029 26.62s-3.963 19.56-11.029 26.62c-7.060 7.060-16.631 11.027-26.618 11.027h-301.176c-9.985 0-19.56-3.966-26.62-11.027s-11.027-16.636-11.027-26.62c0-9.985 3.966-19.56 11.027-26.62s16.636-11.027 26.62-11.027h112.941v-112.941h-282.353c-19.969 0-39.12-7.933-53.241-22.053s-22.053-33.272-22.053-53.241v-244.706h-112.941v112.941c0 9.985-3.966 19.56-11.027 26.62s-16.636 11.027-26.62 11.027c-9.985 0-19.56-3.966-26.621-11.027s-11.027-16.636-11.027-26.62v-301.176c0-9.987 3.966-19.558 11.027-26.618 7.060-7.066 16.636-11.029 26.621-11.029s19.56 3.963 26.62 11.029c7.060 7.060 11.027 16.631 11.027 26.618v112.941h112.941v-97.364c-0.031-9.891 1.903-19.691 5.692-28.829s9.356-17.426 16.379-24.395l184.988-184.989c6.966-7.023 15.259-12.589 24.396-16.378s18.936-5.722 28.827-5.692h364.141c9.891-0.030 19.691 1.903 28.829 5.692s17.426 9.355 24.395 16.378l166.165 166.165h59.717c19.968 0 39.123 7.933 53.242 22.052s22.052 33.274 22.052 53.242v225.882c0 19.969-7.933 39.12-22.052 53.241s-33.274 22.053-53.242 22.053zM1129.412 242.447h-75.294c-4.945 0.006-9.842-0.964-14.414-2.855s-8.722-4.662-12.222-8.156l-177.176-177.224h-364.141l-184.988 184.989v417.364h549.129l177.176-177.224c3.5-3.495 7.65-6.266 12.222-8.155s9.469-2.86 14.414-2.856h75.294v-225.882z" />
<glyph unicode="&#xe958;" glyph-name="star" d="M655.898 579.536c-11.315 0-23.325 8.733-26.829 19.491l-110.736 340.796c-3.504 10.761-9.162 10.761-12.666 0l-110.717-340.796c-3.504-10.762-15.514-19.491-26.829-19.491h-358.339c-11.313 0-13.076-5.392-3.916-12.051l289.887-210.589c9.16-6.662 13.752-20.784 10.247-31.542l-110.714-340.778c-3.505-10.762 1.087-14.099 10.247-7.44l289.887 210.589c9.158 6.662 24 6.662 33.162 0l289.885-210.608c9.162-6.662 13.754-3.322 10.25 7.44l-110.717 340.774c-3.507 10.762 1.085 24.883 10.246 31.542l289.885 210.589c9.162 6.662 7.398 12.054-3.914 12.054l-358.32 0.019z" />
<glyph unicode="&#xe959;" glyph-name="stock" horiz-adv-x="1280" d="M1200 76.813h-40v466.652c0 13.165-3.251 26.128-9.459 37.737s-15.187 21.506-26.138 28.813l-440 293.35c-13.146 8.761-28.582 13.436-44.378 13.436-15.794 0-31.235-4.675-44.376-13.436l-440-293.35c-10.961-7.301-19.95-17.196-26.169-28.805s-9.476-24.575-9.481-37.745v-466.652h-40c-10.609 0-20.783-4.211-28.284-11.712s-11.716-17.677-11.716-28.288c0-10.605 4.214-20.781 11.716-28.282s17.676-11.718 28.284-11.718h1120c10.611 0 20.781 4.218 28.282 11.718 7.507 7.501 11.718 17.677 11.718 28.282 0 10.611-4.211 20.787-11.718 28.288-7.501 7.501-17.67 11.712-28.282 11.712zM200 543.465l440 293.35 440-293.3v-466.702h-120v280.002c0 10.609-4.211 20.783-11.718 28.284-7.501 7.501-17.67 11.716-28.282 11.716h-560c-10.609 0-20.783-4.214-28.284-11.716s-11.716-17.676-11.716-28.284v-280.002h-120v466.652zM880 316.813v-80h-200v80h200zM600 236.813h-200v80h200v-80zM400 156.813h200v-80h-200v80zM680 156.813h200v-80h-200v80z" />
<glyph unicode="&#xe95a;" glyph-name="suv" horiz-adv-x="1902" d="M1901.714 391.070c-9.296 38.451-26.405 74.578-50.264 106.135-23.852 31.557-53.943 57.87-88.4 77.302-58.244 32.884-75.279 30.506-356.571 81.615-221.469 220.679-253.564 280.107-362.913 280.107h-697.295c-27.858 0.041-55.235-7.262-79.371-21.173s-44.178-33.939-58.108-58.065c-114.103-198.095-122.026-212.754-125.592-219.886s-3.962 0.793-3.962-255.543h-39.619c-10.508 0-20.585-4.174-28.015-11.604s-11.604-17.507-11.604-28.014v-158.479c0-10.503 4.174-20.582 11.604-28.014s17.507-11.6 28.015-11.6h241.676c9.093-44.785 33.388-85.043 68.769-113.964 35.38-28.913 79.67-44.712 125.365-44.712s89.985 15.799 125.365 44.712c35.381 28.921 59.676 69.179 68.769 113.964h562.588c9.099-44.785 33.39-85.043 68.769-113.964 35.379-28.913 79.675-44.712 125.367-44.712s89.988 15.799 125.367 44.712c35.379 28.921 59.677 69.179 68.769 113.964 61.125 6.261 121.849 16.048 181.848 29.316 28.050 4.645 53.511 19.185 71.76 40.989 18.242 21.811 28.065 49.437 27.685 77.868 2.414 32.971 2.414 66.076 0 99.047zM1732.147 500.419c30.713-19.344 55.515-46.754 71.709-79.238h-60.621c-10.503-1.471-21.168 1.292-29.637 7.682s-14.058 15.883-15.528 26.39c-1.47 10.508 1.295 21.17 7.687 29.64 6.385 8.471 15.879 14.055 26.39 15.526zM1291.184 658.895h-305.854l-28.526 198.095c164.813 0 112.911 22.187 334.38-198.095zM534.857 658.895c-101.821 135.894-100.236 105.783-39.619 198.095h131.536l-28.526-198.095h-63.391zM707.993 856.99h168.778l28.526-198.095h-225.83l28.526 198.095zM198.095 579.657c10.508 0 20.585-4.174 28.015-11.604s11.604-17.507 11.604-28.015c0-10.508-4.174-20.585-11.604-28.015s-17.507-11.604-28.015-11.604h-39.619v79.239h39.619zM475.429 64.607c-23.507 0-46.487 6.971-66.033 20.034s-34.78 31.62-43.776 53.343c-8.997 21.716-11.35 45.612-6.764 68.674 4.587 23.055 15.906 44.231 32.529 60.853s37.801 27.943 60.857 32.529c23.056 4.586 46.954 2.232 68.672-6.764s40.281-24.231 53.342-43.777c13.060-19.546 20.031-42.527 20.031-66.036 0-31.517-12.522-61.755-34.812-84.041-22.29-22.294-52.522-34.816-84.045-34.816zM1426.286 64.607c-23.508 0-46.49 6.971-66.033 20.034s-34.779 31.62-43.776 53.343c-8.997 21.716-11.352 45.612-6.766 68.674 4.586 23.055 15.909 44.231 32.534 60.853 16.618 16.622 37.8 27.943 60.855 32.529s46.95 2.232 68.674-6.764c21.716-8.997 40.28-24.231 53.336-43.777 13.063-19.546 20.034-42.527 20.034-66.036 0-31.517-12.522-61.755-34.809-84.041-22.294-22.294-52.524-34.816-84.048-34.816zM1789.199 251.215c-171.549-28.129-164.82-28.129-168.777-28.129-9.092 44.781-33.39 85.041-68.769 113.959s-79.675 44.716-125.367 44.716c-45.692 0-89.988-15.797-125.367-44.716s-59.67-69.178-68.769-113.959h-562.588c-9.093 44.781-33.388 85.041-68.769 113.959s-79.669 44.716-125.365 44.716c-45.695 0-89.985-15.797-125.365-44.716s-59.676-69.178-68.769-113.959h-202.057v79.238h39.619c10.508 0 20.585 4.174 28.015 11.604s11.604 17.507 11.604 28.015v79.238h39.619c155.703 0 164.419 237.714-11.093 237.714 118.857 208.792 91.916 198.095 214.339 198.095-17.135-20.656-26.775-46.504-27.35-73.337s7.947-53.070 24.181-74.442l85.181-113.707c17.036-22.979-46.354-15.847 899.75-15.847l265.048-48.336c-13.012-17.66-20.89-38.578-22.755-60.439-1.858-21.861 2.37-43.81 12.215-63.416 9.838-19.607 24.92-36.107 43.564-47.672s40.126-17.744 62.062-17.852h79.243v-51.901c-0.066-9.36-3.445-18.394-9.538-25.501s-14.504-11.828-23.742-13.325zM1462.711 198.524c-2.055 5.2-5.186 9.904-9.194 13.802-4.001 3.906-8.792 6.912-14.036 8.836-5.252 1.924-10.854 2.706-16.428 2.311-5.581-0.395-11.008-1.968-15.931-4.615-4.93-2.648-9.238-6.305-12.646-10.737-3.408-4.425-5.844-9.531-7.146-14.965-1.295-5.442-1.426-11.096-0.388-16.589 1.046-5.493 3.233-10.701 6.437-15.287 5.559-7.965 13.846-13.605 23.289-15.865 9.45-2.253 19.39-0.958 27.948 3.635s15.126 12.171 18.461 21.292c3.335 9.121 3.204 19.149-0.366 28.182zM490.459 219.919c-7.865 3.233-16.562 3.847-24.803 1.755s-15.591-6.78-20.963-13.378c-5.372-6.59-8.48-14.731-8.866-23.23-0.386-8.492 1.971-16.889 6.723-23.94s11.647-12.383 19.664-15.214c8.019-2.831 16.734-3.006 24.861-0.505 8.126 2.509 15.231 7.556 20.263 14.409s7.728 15.148 7.684 23.654c-0.039 7.819-2.393 15.455-6.764 21.943-4.371 6.48-10.565 11.535-17.8 14.504zM1109.307 500.421h-79.236c-10.511 0-20.582-4.174-28.014-11.604s-11.608-17.507-11.608-28.015c0-10.508 4.176-20.585 11.608-28.015s17.503-11.604 28.014-11.604h79.236c10.511 0 20.59 4.174 28.021 11.604 7.424 7.431 11.6 17.507 11.6 28.015s-4.176 20.585-11.6 28.015c-7.431 7.43-17.51 11.604-28.021 11.604zM792.357 500.421h-79.238c-10.508 0-20.585-4.174-28.015-11.604s-11.604-17.507-11.604-28.015c0-10.508 4.174-20.585 11.604-28.015s17.507-11.604 28.015-11.604h79.238c10.511 0 20.582 4.174 28.014 11.604s11.608 17.507 11.608 28.015c0 10.508-4.176 20.585-11.608 28.015s-17.503 11.604-28.014 11.604z" />
<glyph unicode="&#xe95b;" glyph-name="testimonial" horiz-adv-x="1378" d="M344.612 953.108c188.691 0 324.922-155.786 324.922-386.481-1.182-335.143-253.145-572.101-616.644-617.59-33.674-4.254-46.671 42.535-15.656 56.3 139.422 62.031 209.9 140.721 218.998 218.585 6.794 58.191-24.812 109.174-64.571 118.745-102.971 24.753-171.973 153.009-171.973 285.519 0 86.175 34.233 168.821 95.168 229.755s143.581 95.168 229.756 95.168zM1053.535 953.108c188.692 0 324.923-155.786 324.923-386.481-1.182-335.143-253.145-572.101-616.645-617.59-33.674-4.254-46.671 42.535-15.655 56.3 139.422 62.031 209.9 140.721 218.998 218.585 6.794 58.191-24.812 109.174-64.571 118.745-102.971 24.753-171.973 153.009-171.973 285.519 0 86.175 34.233 168.821 95.169 229.755s143.581 95.168 229.754 95.168z" />
<glyph unicode="&#xe95d;" glyph-name="top" d="M972.778 870.4v-665.6c0-13.579-5.394-26.602-14.996-36.204s-22.624-14.996-36.204-14.996-26.602 5.394-36.204 14.996c-9.602 9.601-14.996 22.624-14.996 36.204v542.017l-731.776-731.841c-9.607-9.607-22.638-15.005-36.224-15.005s-26.617 5.398-36.224 15.005c-9.607 9.607-15.004 22.638-15.004 36.224s5.397 26.617 15.004 36.224l731.839 731.776h-542.015c-13.579 0-26.602 5.394-36.204 14.996-9.602 9.601-14.996 22.624-14.996 36.204s5.394 26.602 14.996 36.204c9.601 9.602 22.624 14.996 36.204 14.996h665.6c13.579 0 26.602-5.394 36.204-14.996s14.996-22.625 14.996-36.204z" />
<glyph unicode="&#xe95e;" glyph-name="transmission" d="M170.661 876.8c-30.571-0.825-59.613-13.548-80.944-35.462s-33.267-51.289-33.267-81.871c0-30.582 11.936-59.957 33.267-81.871s50.373-34.639 80.944-35.464c30.571 0.824 59.613 13.55 80.944 35.464s33.266 51.288 33.266 81.871c0 30.582-11.935 59.956-33.266 81.871s-50.373 34.638-80.944 35.462zM170.661 812.8c14.145 0 27.71-5.619 37.712-15.621s15.621-23.568 15.621-37.712c0-14.145-5.619-27.71-15.621-37.712s-23.567-15.622-37.712-15.622c-14.145 0-27.71 5.619-37.712 15.622s-15.621 23.567-15.621 37.712c0 14.145 5.619 27.71 15.621 37.712s23.568 15.621 37.712 15.621zM170.661 279.468c-30.571-0.824-59.613-13.55-80.944-35.464s-33.267-51.29-33.267-81.871c0-30.582 11.936-59.955 33.267-81.869 21.331-21.916 50.373-34.639 80.944-35.464 30.571 0.824 59.613 13.548 80.944 35.464 21.331 21.914 33.266 51.287 33.266 81.869s-11.935 59.958-33.266 81.871c-21.331 21.914-50.373 34.639-80.944 35.464zM170.661 215.468c7.004 0 13.939-1.38 20.41-4.060s12.35-6.61 17.303-11.561c4.953-4.954 8.881-10.831 11.561-17.303s4.060-13.407 4.060-20.411c0-7.004-1.38-13.939-4.060-20.408-2.68-6.472-6.609-12.352-11.561-17.303-4.952-4.954-10.832-8.881-17.303-11.561s-13.406-4.060-20.41-4.060c-14.145 0-27.71 5.619-37.712 15.621s-15.621 23.567-15.621 37.711c0 14.147 5.619 27.712 15.621 37.714s23.568 15.621 37.712 15.621zM511.995 876.8c-30.572-0.825-59.612-13.548-80.945-35.462-21.33-21.914-33.267-51.289-33.267-81.871s11.937-59.957 33.267-81.871c21.332-21.914 50.373-34.639 80.945-35.464 30.572 0.824 59.612 13.55 80.945 35.464 21.33 21.914 33.267 51.288 33.267 81.871s-11.937 59.956-33.267 81.871c-21.332 21.914-50.373 34.638-80.945 35.462zM511.995 812.8c14.144 0 27.709-5.619 37.711-15.621s15.621-23.568 15.621-37.712c0-14.145-5.619-27.71-15.621-37.712s-23.567-15.622-37.711-15.622c-14.144 0-27.709 5.619-37.711 15.622s-15.621 23.567-15.621 37.712c0 14.145 5.619 27.71 15.621 37.712s23.567 15.621 37.711 15.621zM511.995 279.468c-30.572-0.824-59.612-13.55-80.945-35.464-21.33-21.914-33.267-51.29-33.267-81.871s11.937-59.955 33.267-81.869c21.332-21.916 50.373-34.639 80.945-35.464 30.572 0.824 59.612 13.548 80.945 35.464 21.33 21.914 33.267 51.287 33.267 81.869s-11.937 59.958-33.267 81.871c-21.332 21.914-50.373 34.639-80.945 35.464zM511.995 215.468c7.004 0 13.939-1.38 20.411-4.060 6.469-2.68 12.349-6.61 17.3-11.561 4.954-4.954 8.881-10.831 11.561-17.303s4.060-13.407 4.060-20.411c0-7.004-1.38-13.939-4.060-20.408-2.68-6.472-6.607-12.352-11.561-17.303-4.951-4.954-10.831-8.881-17.3-11.561-6.472-2.68-13.407-4.060-20.411-4.060-14.144 0-27.709 5.619-37.711 15.621s-15.621 23.567-15.621 37.711c0 14.147 5.619 27.712 15.621 37.714s23.567 15.621 37.711 15.621zM853.327 876.8c-30.569-0.825-59.612-13.548-80.945-35.462-21.33-21.914-33.267-51.289-33.267-81.871s11.937-59.957 33.267-81.871c21.332-21.914 50.376-34.639 80.945-35.464 30.572 0.824 59.615 13.55 80.945 35.464 21.332 21.914 33.267 51.288 33.267 81.871s-11.935 59.956-33.267 81.871c-21.33 21.914-50.373 34.638-80.945 35.462zM853.327 812.8c14.147 0 27.712-5.619 37.714-15.621s15.621-23.568 15.621-37.712c0-14.145-5.619-27.71-15.621-37.712s-23.567-15.622-37.714-15.622c-14.144 0-27.709 5.619-37.711 15.622s-15.621 23.567-15.621 37.712c0 14.145 5.619 27.71 15.621 37.712s23.567 15.621 37.711 15.621zM853.327 279.468c-30.569-0.824-59.612-13.55-80.945-35.464-21.33-21.914-33.267-51.29-33.267-81.871s11.937-59.955 33.267-81.869c21.332-21.916 50.376-34.639 80.945-35.464 30.572 0.824 59.615 13.548 80.945 35.464 21.332 21.914 33.267 51.287 33.267 81.869s-11.935 59.958-33.267 81.871c-21.33 21.914-50.373 34.639-80.945 35.464zM853.327 215.468c7.004 0 13.939-1.38 20.411-4.060s12.349-6.61 17.303-11.561c4.951-4.954 8.881-10.831 11.561-17.303s4.060-13.407 4.060-20.411c0-7.004-1.38-13.939-4.060-20.408-2.68-6.472-6.61-12.352-11.561-17.303-4.954-4.954-10.831-8.881-17.303-11.561s-13.407-4.060-20.411-4.060c-14.144 0-27.709 5.619-37.711 15.621s-15.621 23.567-15.621 37.711c0 14.147 5.619 27.712 15.621 37.714s23.567 15.621 37.711 15.621zM138.662 674.132v-426.665c0-8.489 3.372-16.627 9.373-22.628s14.14-9.372 22.627-9.372c8.487 0 16.626 3.372 22.628 9.372s9.372 14.139 9.372 22.628v426.665c0 8.489-3.371 16.627-9.372 22.628s-14.141 9.372-22.628 9.372c-8.487 0-16.626-3.372-22.627-9.372s-9.373-14.139-9.373-22.628zM479.995 674.132v-426.665c0-8.489 3.372-16.627 9.375-22.628 6.001-6.001 14.139-9.372 22.625-9.372 8.489 0 16.627 3.372 22.628 9.372s9.372 14.139 9.372 22.628v426.665c0 8.489-3.372 16.627-9.372 22.628s-14.139 9.372-22.628 9.372c-8.486 0-16.625-3.372-22.625-9.372-6.003-6.001-9.375-14.139-9.375-22.628zM821.33 674.132v-170.665c0-2.829-1.124-5.542-3.126-7.544-1.999-1.999-4.713-3.123-7.542-3.123h-640c-8.487 0-16.626-3.372-22.627-9.372s-9.373-14.141-9.373-22.628c0-8.486 3.372-16.627 9.373-22.628s14.14-9.372 22.627-9.372h640c19.804 0 38.794 7.867 52.797 21.87s21.87 32.993 21.87 52.797v170.665c0 8.489-3.372 16.627-9.372 22.628-6.003 6.001-14.141 9.372-22.628 9.372s-16.627-3.372-22.628-9.372c-6.001-6.001-9.372-14.139-9.372-22.628z" />
</font>
</defs>
</svg>
