<?xml version="1.0" encoding="iso-8859-1"?>
<!-- Uploaded to: SVG Repo, www.svgrepo.com, Generator: SVG Repo Mixer Tools -->
<!DOCTYPE svg PUBLIC "-//W3C//DTD SVG 1.1//EN" "http://www.w3.org/Graphics/SVG/1.1/DTD/svg11.dtd">
<svg fill="#000000" version="1.1" id="Capa_1" xmlns="http://www.w3.org/2000/svg" xmlns:xlink="http://www.w3.org/1999/xlink" 
	 width="800px" height="800px" viewBox="0 0 192.962 192.961"
	 xml:space="preserve">
<g>
	<path d="M183.917,76.845c-3.215-1.168-8.529-2.251-11.889-0.314c-0.033-0.109-0.058-0.218-0.091-0.326
		c-5.549-18.288-16.843-38.273-36.004-44.819c-7.294-2.492-14.644-3.776-22.031-4.297c-0.225-2.475-0.66-4.934-0.81-7.419
		c-0.07-1.164-0.868-1.928-2.018-2.017c-8.415-0.649-16.36-2.265-24.811-0.502c-6.404,1.336-10.114,6.222-8.442,11.608
		c-4.003,0.447-8.008,0.912-12.014,1.331c-0.314,0.033-0.573,0.142-0.825,0.257c-13.388,0.131-25.265,16.844-32.289,26.247
		c-3.401,4.553-6.335,9.458-8.87,14.587c-3.979-1.814-9.429-1.61-13.206-0.52C4.785,72.345,1.58,77.82,0.317,83.392
		c-1.775,7.833,4.067,21.893,13.413,19.327c-1.225,6.894-1.966,13.84-2.132,20.674c-0.211,8.678,1.717,14.914,5.718,19.209
		c-2.883,1.65-2.68,8.31-2.625,10.808c0.158,7.207,3.804,13.272,9.657,17.309c14.312,9.872,31.807-3.227,28.229-19.427
		c-0.01-0.046-0.042-0.073-0.054-0.118c25.305,1.029,50.644-0.312,75.959-0.125c1.378,0.011,2.858,0.055,4.381,0.105
		c-2.024,13.169,8.025,26.124,21.714,25.428c14.765-0.75,19.633-18.474,14.968-30.493c3.008-2.004,5.514-4.686,7.18-8.377
		c3.433-7.607,1.674-17.549,0.994-25.512c-0.208-2.431-0.426-4.844-0.659-7.249c2.992,0.218,6.471-1.265,8.635-2.822
		c4.436-3.19,7.172-8.337,7.267-13.779C193.052,83.125,188.564,78.533,183.917,76.845z M84.002,23.185
		c2.575-1.635,6.199-1.818,9.14-2.003c5.226-0.328,10.734-0.235,16.003,0.312c0.076,1.792,0.182,3.583,0.318,5.373
		c-9.125-0.284-18.303,0.466-27.502,1.444C81.646,26.322,81.839,24.558,84.002,23.185z M5.568,83.893
		c1.082-4.656,3.98-7.75,8.604-8.876c2.684-0.654,5.133,0.125,7.616,0.708c-3.288,7.538-5.75,15.47-7.412,23.564
		C7.183,98.751,4.031,90.51,5.568,83.893z M26.962,166.245c-7.917-4.262-8.156-13.669-7.081-21.374
		c4.086,3.023,9.651,4.719,16.72,5.338c3.502,0.308,7.004,0.536,10.508,0.729c-0.119,0.327-0.171,0.693-0.122,1.108
		C48.446,164.48,38.806,172.622,26.962,166.245z M155.601,170.583c-12.24,2.785-16.789-9.932-19.014-19.298
		c9.103,0.33,19.634,0.543,27.949-2.622C165.326,157.442,166.497,168.103,155.601,170.583z M169.919,137.191
		c-4.838,10.415-26.625,7.695-35.445,7.913c-18.575,0.456-37.126,0.812-55.698,1.274c-15.655,0.391-56.737,3.369-61.631-15.502
		c-4.612-17.786,3.65-42.683,11.419-58.429c7.472-15.145,19.738-31.418,35.985-37.568c0.348,0.177,0.748,0.292,1.26,0.237
		c35.875-3.838,72.982-8.457,94.414,26.895c8.481,13.991,10.675,34.271,11.636,50.188
		C172.343,120.223,173.405,129.688,169.919,137.191z M184.575,97.159c-1.366,1.529-3.296,2.452-5.243,2.946
		c-0.966,0.245-1.883,0.036-2.805-0.188c-0.77-6.73-1.822-13.379-3.556-19.997c5.568,0.585,11.98,1.104,14.375,7.205
		C188.798,90.821,187.054,94.385,184.575,97.159z"/>
	<path d="M154.228,78.992c-8.435-26.365-33.147-38.912-59.791-38.868C73.225,40.16,41.827,55.251,40.68,79.663
		c-0.976,0.364-1.423,1.856-0.281,2.422c32.227,15.974,79.731,21.366,111.585,1.513c0.616-0.384,0.977-0.954,1.126-1.576
		C154.034,81.347,154.631,80.255,154.228,78.992z M43.883,80.214c7.93-23.501,31.713-34.869,55.138-34.873
		c22.562-0.003,40.036,14.623,49.002,34.094C112.268,93.333,80.312,89.385,43.883,80.214z"/>
	<path d="M57.958,110.979c-1.265-7.036-11.584-13.635-18.019-8.819c-0.151,0.113-0.26,0.246-0.378,0.375
		c-3.504,0.496-6.871,5.215-7.427,8.388c-1.294,7.389,4.111,13.533,11.362,14.015C51.704,125.484,59.503,119.578,57.958,110.979z
		 M43.496,118.963c-4.143-0.086-5.813-3.653-5.778-7.283c0.029-2.954,1.703-4.229,3.802-5.287c2.325,0.094,4.456-0.387,6.689,0.697
		c1.799,0.874,3.204,2.489,3.877,4.36C54.038,116.877,47.786,119.051,43.496,118.963z"/>
	<path d="M157.789,106.733c-2.521-2.346-8.151-4.828-11.271-2.556c-0.21,0.153-0.384,0.364-0.545,0.582
		c-5.029-1.441-9.608,4.951-10.249,9.451c-0.979,6.867,2.607,14.038,9.997,14.917c8.205,0.977,15.666-4.804,16.108-13.095
		C162.015,112.538,160.295,109.064,157.789,106.733z M146.407,122.745c-3.873-0.168-4.95-4.65-4.78-7.735
		c0.2-3.636,2.169-5.655,4.914-7.207c1.795,1.2,3.974,1.226,5.88,2.396c1.731,1.062,2.724,3.225,2.862,5.183
		C155.64,120.381,150.828,122.937,146.407,122.745z"/>
</g>
</svg>