<svg width="22" height="22" viewBox="0 0 22 22" fill="none" xmlns="http://www.w3.org/2000/svg">
<g opacity="0.2">
<path d="M10.0135 2.55688H6.58608C3.76733 2.55688 2 4.55247 2 7.37763V14.9988C2 17.824 3.75908 19.8196 6.58608 19.8196H14.6747C17.5027 19.8196 19.2617 17.824 19.2617 14.9988V11.3065" stroke="#F1FAEE" stroke-width="1.5" stroke-linecap="round" stroke-linejoin="round"/>
<path fill-rule="evenodd" clip-rule="evenodd" d="M7.57059 10.0111L14.4208 3.16086C15.2743 2.30836 16.6575 2.30836 17.5109 3.16086L18.6265 4.27644C19.4799 5.12986 19.4799 6.51403 18.6265 7.36653L11.7433 14.2498C11.3702 14.6229 10.8642 14.8328 10.3362 14.8328H6.90234L6.98851 11.3678C7.00134 10.8581 7.20943 10.3723 7.57059 10.0111Z" stroke="#F1FAEE" stroke-width="1.5" stroke-linecap="round" stroke-linejoin="round"/>
<path d="M13.3789 4.21875L17.5644 8.40425" stroke="#F1FAEE" stroke-width="1.5" stroke-linecap="round" stroke-linejoin="round"/>
</g>
</svg>
