<svg width="22" height="22" viewBox="0 0 22 22" fill="none" xmlns="http://www.w3.org/2000/svg">
<g opacity="0.2">
<path fill-rule="evenodd" clip-rule="evenodd" d="M17.6487 17.4814C14.8473 20.2831 10.699 20.8885 7.30422 19.3185C6.80306 19.1167 6.39219 18.9537 6.00159 18.9537C4.91361 18.9601 3.5594 20.015 2.85558 19.3121C2.15176 18.6082 3.20749 17.2529 3.20749 16.1583C3.20749 15.7677 3.05088 15.3641 2.84913 14.862C1.27843 11.4678 1.8846 7.31811 4.68607 4.51726C8.2623 0.939714 14.0725 0.939714 17.6487 4.51634C21.2314 8.09941 21.225 13.9047 17.6487 17.4814Z" stroke="#F1FAEE" stroke-width="1.5" stroke-linecap="round" stroke-linejoin="round"/>
<path d="M14.7784 11.3802H14.7867" stroke="#F1FAEE" stroke-width="2" stroke-linecap="round" stroke-linejoin="round"/>
<path d="M11.1026 11.3802H11.1109" stroke="#F1FAEE" stroke-width="2" stroke-linecap="round" stroke-linejoin="round"/>
<path d="M7.42686 11.3802H7.43511" stroke="#F1FAEE" stroke-width="2" stroke-linecap="round" stroke-linejoin="round"/>
</g>
</svg>
