<svg width="36" height="36" viewBox="0 0 36 36" fill="none" xmlns="http://www.w3.org/2000/svg">
<g clip-path="url(#clip0_1_163)">
<path d="M8.24026 35.2277C7.78238 35.2277 7.32901 35.0837 6.93863 34.7991C6.60484 34.5582 6.34612 34.2276 6.19241 33.8458C6.03871 33.4639 5.99631 33.0463 6.07013 32.6413L7.73626 22.9157L0.667882 16.0397C0.370511 15.7511 0.160689 15.3843 0.0625688 14.9817C-0.0355513 14.5791 -0.017981 14.1569 0.113257 13.7638C0.239719 13.3734 0.473671 13.0266 0.788271 12.7632C1.10287 12.4997 1.48537 12.3303 1.89188 12.2743L11.6513 10.8512L16.0253 1.99856C16.3965 1.24481 17.1548 0.773438 18.0008 0.773438C18.8468 0.773438 19.6039 1.24369 19.9774 1.99969L24.3503 10.8512L34.1153 12.2754C34.9421 12.3913 35.6228 12.9617 35.8883 13.7638C36.0194 14.1561 36.0372 14.5774 35.9397 14.9794C35.8422 15.3814 35.6333 15.7477 35.337 16.0363L31.98 19.2909C31.7641 19.489 31.4795 19.595 31.1867 19.5864C30.8939 19.5779 30.616 19.4555 30.412 19.2452C30.2081 19.0349 30.0942 18.7534 30.0945 18.4605C30.0949 18.1676 30.2095 17.8863 30.414 17.6766L33.7665 14.4253L23.4413 12.9932C23.2609 12.9671 23.0895 12.8975 22.9419 12.7905C22.7944 12.6835 22.675 12.5423 22.5941 12.3789L17.9591 2.99644L13.4063 12.3789C13.3255 12.5422 13.2063 12.6833 13.0589 12.7903C12.9116 12.8973 12.7405 12.9669 12.5603 12.9932L2.21026 14.5007L9.72863 21.7164C9.8597 21.8435 9.9579 22.0005 10.0147 22.174C10.0716 22.3474 10.0854 22.5321 10.0549 22.7121L8.28638 33.0306L17.4754 28.1098C17.6474 28.0191 17.84 27.9745 18.0345 27.9804C18.2289 27.9863 18.4184 28.0425 18.5846 28.1436C19.1145 28.4676 19.3125 29.1763 18.9896 29.7073C18.8209 29.9829 18.5599 30.1663 18.2741 30.2327L9.26513 34.9723C8.94917 35.1402 8.59693 35.2283 8.23913 35.2288L8.24026 35.2277Z" fill="#FF7101" stroke="white" stroke-width="0.5"/>
<path d="M28.125 36C23.7825 36 20.25 32.4675 20.25 28.125C20.25 23.7825 23.7825 20.25 28.125 20.25C32.4675 20.25 36 23.7825 36 28.125C36 32.4675 32.4675 36 28.125 36ZM28.125 22.5C25.0234 22.5 22.5 25.0234 22.5 28.125C22.5 31.2266 25.0234 33.75 28.125 33.75C31.2266 33.75 33.75 31.2266 33.75 28.125C33.75 25.0234 31.2266 22.5 28.125 22.5Z" fill="#FF7101" stroke="white" stroke-width="0.5"/>
<path d="M28.125 31.5C27.8266 31.5 27.5405 31.3815 27.3295 31.1705C27.1185 30.9595 27 30.6734 27 30.375V25.875C27 25.5766 27.1185 25.2905 27.3295 25.0795C27.5405 24.8685 27.8266 24.75 28.125 24.75C28.4234 24.75 28.7095 24.8685 28.9205 25.0795C29.1315 25.2905 29.25 25.5766 29.25 25.875V30.375C29.25 30.6734 29.1315 30.9595 28.9205 31.1705C28.7095 31.3815 28.4234 31.5 28.125 31.5Z" fill="#FF7101" stroke="white" stroke-width="0.5"/>
<path d="M30.375 29.25H25.875C25.5766 29.25 25.2905 29.1315 25.0795 28.9205C24.8685 28.7095 24.75 28.4234 24.75 28.125C24.75 27.8266 24.8685 27.5405 25.0795 27.3295C25.2905 27.1185 25.5766 27 25.875 27H30.375C30.6734 27 30.9595 27.1185 31.1705 27.3295C31.3815 27.5405 31.5 27.8266 31.5 28.125C31.5 28.4234 31.3815 28.7095 31.1705 28.9205C30.9595 29.1315 30.6734 29.25 30.375 29.25Z" fill="#FF7101" stroke="white" stroke-width="0.5"/>
</g>
<defs>
<clipPath id="clip0_1_163">
<rect width="36" height="36" fill="white"/>
</clipPath>
</defs>
</svg>
