<svg width="36" height="36" viewBox="0 0 36 36" fill="none" xmlns="http://www.w3.org/2000/svg">
<g clip-path="url(#clip0_1_174)">
<path d="M32.121 0H3.87893C1.74009 0 0 1.74002 0 3.87886V27.6023C0 29.7411 1.74009 31.4812 3.87893 31.4812H13.0444L17.2541 35.691C17.3521 35.789 17.4683 35.8667 17.5963 35.9197C17.7243 35.9727 17.8614 36 17.9999 36C18.1384 36 18.2756 35.9727 18.4036 35.9197C18.5315 35.8667 18.6478 35.789 18.7457 35.691L22.9556 31.4812H32.1211C34.26 31.4812 36.0001 29.7411 36.0001 27.6023V3.87886C36 1.74002 34.2599 0 32.121 0ZM33.8906 27.6023C33.8906 28.578 33.0968 29.3719 32.121 29.3719H22.5187C22.2389 29.3719 21.9707 29.4829 21.773 29.6808L17.9999 33.4538L14.227 29.6808C14.1291 29.5829 14.0128 29.5052 13.8849 29.4521C13.7569 29.3991 13.6197 29.3719 13.4812 29.3719H3.87893C2.9032 29.3719 2.10938 28.578 2.10938 27.6023V3.87886C2.10938 2.90313 2.9032 2.10938 3.87893 2.10938H32.1211C33.0968 2.10938 33.8906 2.90313 33.8906 3.87886V27.6023Z" fill="#FF7101" stroke="white" stroke-width="0.7"/>
<path d="M27.0609 12.1321L21.4544 11.3172L18.9463 6.23624C18.8592 6.05979 18.7245 5.91123 18.5574 5.80735C18.3902 5.70348 18.1974 5.64843 18.0006 5.64844C17.8038 5.64844 17.6109 5.70351 17.4438 5.80739C17.2767 5.91128 17.142 6.05986 17.0549 6.23631L14.547 11.3172L8.9401 12.1321C8.74535 12.1604 8.56241 12.2426 8.41196 12.3695C8.2615 12.4963 8.14954 12.6627 8.08873 12.8499C8.02792 13.0371 8.02068 13.2375 8.06784 13.4286C8.115 13.6196 8.21467 13.7937 8.35559 13.931L12.413 17.8859L11.4554 23.4702C11.4222 23.6641 11.4439 23.8635 11.518 24.0458C11.5922 24.2281 11.7159 24.3859 11.8751 24.5016C12.0342 24.6173 12.2226 24.6861 12.4189 24.7003C12.6151 24.7145 12.8115 24.6736 12.9857 24.582L18.0006 21.9455L23.016 24.582C23.1673 24.6616 23.3356 24.7032 23.5066 24.7032H23.511C24.0922 24.7017 24.5628 24.2301 24.5628 23.6485C24.5628 23.5675 24.5537 23.4886 24.5365 23.4128L23.588 17.8859L27.6454 13.9311C27.7863 13.7938 27.886 13.6197 27.9332 13.4286C27.9804 13.2376 27.9731 13.0371 27.9123 12.85C27.8515 12.6628 27.7396 12.4963 27.5891 12.3695C27.4386 12.2426 27.2557 12.1604 27.0609 12.1321ZM21.7185 16.7624C21.5961 16.8817 21.5045 17.0291 21.4516 17.1917C21.3988 17.3544 21.3863 17.5274 21.4152 17.696L22.1058 21.7204L18.4913 19.8204C18.34 19.7409 18.1716 19.6993 18.0006 19.6993C17.8296 19.6993 17.6611 19.7409 17.5098 19.8204L13.8957 21.7205L14.5858 17.6959C14.6147 17.5274 14.6022 17.3544 14.5494 17.1917C14.4965 17.0291 14.405 16.8818 14.2825 16.7624L11.3584 13.9122L15.3991 13.3249C15.5683 13.3003 15.729 13.2349 15.8674 13.1344C16.0057 13.0339 16.1175 12.9013 16.1932 12.748L18.0006 9.08601L19.8083 12.748C19.884 12.9013 19.9958 13.034 20.1341 13.1344C20.2725 13.2349 20.4331 13.3003 20.6023 13.3249L24.6428 13.9122L21.7185 16.7624Z" fill="#FF7101" stroke="white" stroke-width="0.7"/>
</g>
<defs>
<clipPath id="clip0_1_174">
<rect width="36" height="36" fill="white"/>
</clipPath>
</defs>
</svg>
