<svg width="36" height="36" viewBox="0 0 36 36" fill="none" xmlns="http://www.w3.org/2000/svg">
<g clip-path="url(#clip0_1_154)">
<path d="M17.9436 36C17.3611 36 16.8889 35.5278 16.8889 34.9453C16.8889 34.3628 17.3611 33.8906 17.9436 33.8906C26.7057 33.8906 33.8342 26.7621 33.8342 18C33.8342 9.23787 26.7057 2.10938 17.9436 2.10938C17.3611 2.10938 16.8889 1.63716 16.8889 1.05469C16.8889 0.472219 17.3611 0 17.9436 0C22.7515 0 27.2717 1.87235 30.6715 5.27203C34.0713 8.67178 35.9436 13.192 35.9436 18C35.9436 22.808 34.0712 27.3281 30.6715 30.728C27.2717 34.1276 22.7515 36 17.9436 36Z" fill="#FF7101"/>
<path d="M26.4162 27.5273C26.2777 27.5275 26.1405 27.5003 26.0125 27.4473C25.8845 27.3943 25.7683 27.3165 25.6705 27.2184L17.1978 18.7457C17 18.5479 16.8889 18.2797 16.8889 18V7.40915C16.8889 6.82668 17.3611 6.35447 17.9436 6.35447C18.526 6.35447 18.9982 6.82668 18.9982 7.40915V17.5631L27.162 25.7269C27.5738 26.1388 27.5738 26.8065 27.162 27.2184C27.0641 27.3165 26.9479 27.3943 26.8199 27.4473C26.6919 27.5003 26.5547 27.5275 26.4162 27.5273ZM11.8158 3.25242C11.946 3.25242 12.0785 3.22816 12.2068 3.1769C12.2106 3.17543 12.5861 3.02587 12.9903 2.89952C13.4221 2.76459 13.9327 2.62017 13.9378 2.61876C14.4984 2.46042 14.8244 1.8776 14.666 1.31707C14.5077 0.756537 13.9253 0.430427 13.3644 0.588841C13.3425 0.595029 12.8213 0.742404 12.3611 0.886193C12.0447 0.986057 11.7319 1.09689 11.4233 1.21849C10.8826 1.43491 10.6199 2.04846 10.8361 2.58916C11.001 3.00154 11.3971 3.25242 11.8158 3.25242ZM7.55679 3.29517C7.53837 3.30867 7.10194 3.62915 6.72133 3.92496C6.4599 4.12928 6.20569 4.34267 5.95915 4.56473C5.52855 4.95679 5.4974 5.6235 5.88926 6.05423C5.98804 6.16302 6.10852 6.24991 6.24293 6.3093C6.37734 6.36869 6.52271 6.39926 6.66965 6.39904C6.93207 6.39934 7.18511 6.30148 7.37904 6.12469C7.38206 6.12194 7.68124 5.8504 8.01565 5.59059C8.37298 5.31293 8.80062 4.99884 8.8049 4.99575C9.27452 4.65108 9.37577 3.99105 9.03117 3.52144C8.68643 3.05182 8.0264 2.9505 7.55679 3.29517ZM4.52498 7.55955C4.03765 7.2404 3.38402 7.37667 3.0648 7.86394C3.05229 7.88299 2.75571 8.33601 2.50272 8.7465C2.32946 9.02945 2.16609 9.31835 2.01293 9.61268C1.74694 10.1307 1.95119 10.7662 2.46912 11.0323C2.6179 11.109 2.78287 11.149 2.95026 11.1491C3.3329 11.1491 3.70219 10.9401 3.88922 10.5765C3.89097 10.5729 4.07618 10.2136 4.2983 9.85329C4.53581 9.46804 4.82641 9.02409 4.8293 9.01966C5.14851 8.5324 5.01218 7.8787 4.52498 7.55955ZM1.00915 16.893C1.05036 16.8978 1.09182 16.9002 1.13332 16.9003C1.66087 16.9003 2.11657 16.5051 2.1795 15.9684C2.17999 15.9644 2.22703 15.567 2.30958 15.1478C2.39705 14.7039 2.51376 14.1864 2.51496 14.1812C2.64335 13.6131 2.28687 13.0484 1.71867 12.92C1.1504 12.7916 0.585936 13.1482 0.457475 13.7163C0.452412 13.7385 0.333162 14.2669 0.239998 14.7401C0.176825 15.0657 0.124973 15.3934 0.0845374 15.7226C0.0166155 16.3012 0.430545 16.8252 1.00915 16.893ZM2.46623 21.6175C2.40179 21.3481 2.34659 21.0767 2.30072 20.8035C2.22717 20.3571 2.15524 19.8314 2.15454 19.8262C2.07572 19.2491 1.54493 18.8448 0.966819 18.9239C0.389694 19.0027 -0.0142517 19.5344 0.0644983 20.1115C0.067592 20.1341 0.140998 20.6707 0.219326 21.1463C0.274184 21.4736 0.340412 21.7988 0.417889 22.1215C0.536225 22.6025 0.9671 22.9244 1.44122 22.9244C1.52468 22.9244 1.6094 22.9145 1.69406 22.8937C2.25972 22.7544 2.60545 22.1831 2.46623 21.6175ZM4.27326 26.1043C4.04805 25.7118 3.79655 25.2446 3.79401 25.24C3.51804 24.727 2.87826 24.535 2.36562 24.8108C1.85262 25.0867 1.66045 25.7263 1.93643 26.2392C1.94719 26.2593 2.2039 26.7362 2.44387 27.1542C2.60985 27.4415 2.78577 27.7229 2.97129 27.998C3.1754 28.2971 3.5063 28.458 3.84309 28.458C4.04777 28.458 4.2547 28.3986 4.43646 28.2745C4.91761 27.9464 5.04157 27.2903 4.71356 26.8091C4.71124 26.8057 4.48399 26.4716 4.27326 26.1043ZM8.6363 30.8845C8.41096 30.7233 8.19111 30.5545 7.97712 30.3786C7.62872 30.0899 7.22955 29.7403 7.22562 29.7368C6.78764 29.353 6.12115 29.3968 5.73731 29.835C5.3534 30.273 5.39735 30.9394 5.8354 31.3233C5.85255 31.3383 6.25994 31.6951 6.63119 32.0028C7.02269 32.3272 7.40463 32.597 7.42073 32.6083C7.59812 32.7337 7.81006 32.8011 8.02732 32.801C8.35856 32.801 8.68467 32.6454 8.89012 32.3541C9.22573 31.8783 9.1121 31.2203 8.6363 30.8845ZM13.7377 33.3279C13.4702 33.256 13.2053 33.175 12.9434 33.085C12.5159 32.9366 12.0197 32.7489 12.0147 32.747C11.4701 32.5409 10.8613 32.8154 10.655 33.3602C10.4488 33.9049 10.7233 34.5137 11.2681 34.7199C11.2895 34.728 11.796 34.9195 12.2515 35.0776C12.7317 35.2444 13.1839 35.3633 13.2029 35.3684C13.2925 35.3918 13.3825 35.4031 13.4709 35.4031C13.9388 35.4031 14.3663 35.0894 14.4904 34.6154C14.6382 34.052 14.3012 33.4755 13.7377 33.3279Z" fill="#FF7101"/>
</g>
<defs>
<clipPath id="clip0_1_154">
<rect width="36" height="36" fill="white"/>
</clipPath>
</defs>
</svg>
