<svg width="36" height="36" viewBox="0 0 36 36" fill="none" xmlns="http://www.w3.org/2000/svg">
<g clip-path="url(#clip0_1_144)">
<path d="M27.4092 14.014H18.6185C17.9319 14.014 17.3626 13.4447 17.3626 12.7582C17.3626 12.0717 17.9319 11.5024 18.6185 11.5024H27.4092C27.7422 11.5024 28.0616 11.6347 28.2971 11.8702C28.5327 12.1057 28.665 12.4252 28.665 12.7582C28.665 13.0913 28.5327 13.4107 28.2971 13.6462C28.0616 13.8817 27.7422 14.014 27.4092 14.014ZM9.82775 15.2866C9.50961 15.2866 9.19148 15.1694 8.94031 14.9182L7.6845 13.6624C7.19892 13.1768 7.19892 12.3731 7.6845 11.8875C8.17008 11.402 8.9738 11.402 9.45938 11.8875L9.82775 12.2559L12.7078 9.3759C13.1933 8.89032 13.9971 8.89032 14.4826 9.3759C14.9682 9.86149 14.9682 10.6652 14.4826 11.1508L10.7152 14.9182C10.4799 15.1538 10.1607 15.2863 9.82775 15.2866ZM27.4092 25.735H18.6185C17.9319 25.735 17.3626 25.1657 17.3626 24.4792C17.3626 23.7927 17.9319 23.2233 18.6185 23.2233H27.4092C27.7422 23.2233 28.0616 23.3557 28.2971 23.5912C28.5327 23.8267 28.665 24.1461 28.665 24.4792C28.665 24.8122 28.5327 25.1316 28.2971 25.3672C28.0616 25.6027 27.7422 25.735 27.4092 25.735ZM9.82775 27.0075C9.50961 27.0075 9.19148 26.8903 8.94031 26.6392L7.6845 25.3833C7.19892 24.8978 7.19892 24.094 7.6845 23.6085C8.17008 23.1229 8.9738 23.1229 9.45938 23.6085L9.82775 23.9768L12.7078 21.0968C13.1933 20.6113 13.9971 20.6113 14.4826 21.0968C14.9682 21.5824 14.9682 22.3861 14.4826 22.8717L10.7152 26.6392C10.4799 26.8747 10.1607 27.0072 9.82775 27.0075Z" fill="#FF7101" stroke="white" stroke-width="0.7"/>
<path d="M23.0233 36H12.9767C3.88465 36 0 32.1153 0 23.0233V12.9767C0 3.88465 3.88465 0 12.9767 0H23.0233C32.1153 0 36 3.88465 36 12.9767V23.0233C36 32.1153 32.1153 36 23.0233 36ZM12.9767 2.51163C5.25767 2.51163 2.51163 5.25767 2.51163 12.9767V23.0233C2.51163 30.7423 5.25767 33.4884 12.9767 33.4884H23.0233C30.7423 33.4884 33.4884 30.7423 33.4884 23.0233V12.9767C33.4884 5.25767 30.7423 2.51163 23.0233 2.51163H12.9767Z" fill="#FF7101" stroke="white" stroke-width="0.7"/>
</g>
<defs>
<clipPath id="clip0_1_144">
<rect width="36" height="36" fill="white"/>
</clipPath>
</defs>
</svg>
